<svg width="316" height="254" viewBox="0 0 316 254" fill="none" xmlns="http://www.w3.org/2000/svg">
<path d="M201.935 99.918C201.935 99.918 229.41 97.8132 237.493 103.408C252.056 113.489 256.138 168.054 244.828 187.392C236.527 201.588 185.649 194.26 185.649 194.26L201.935 99.918Z" fill="white"/>
<path d="M247.697 174.771L236.31 174.676C236.015 174.673 235.721 174.67 235.426 174.667C235.365 173.813 235.299 172.965 235.23 172.126C237.104 173.35 239.389 173.956 241.696 173.956C243.969 173.956 246.265 173.367 248.207 172.2C248.05 173.075 247.88 173.932 247.697 174.771Z" fill="#B9AFBE"/>
<path d="M212.791 197.741C212.567 197.741 212.344 197.741 212.118 197.74C198.408 197.682 185.549 195.852 185.42 195.834C184.552 195.709 183.95 194.903 184.075 194.035C184.199 193.166 185.01 192.563 185.874 192.689C199.732 194.682 237.091 197.474 243.457 186.59C254.558 167.607 250.064 114.045 236.588 104.715C230.341 100.391 209.543 100.931 202.056 101.503C201.179 101.569 200.418 100.916 200.35 100.041C200.283 99.1663 200.937 98.4016 201.812 98.3343C202.957 98.2483 229.949 96.2534 238.396 102.102C245.552 107.056 250.806 121.897 252.446 141.799C253.693 156.932 252.708 177.067 246.201 188.194C242.496 194.529 231.255 197.741 212.791 197.741Z" fill="#371A45"/>
<path d="M249.836 148.334L235.728 149.425C234.468 149.522 233.432 150.455 233.209 151.699C232.396 156.253 231.063 166.87 235.5 170.365C239.181 173.266 245.15 172.911 248.64 169.943C252.543 166.623 252.902 156.213 252.828 151.06C252.804 149.459 251.435 148.209 249.836 148.334Z" fill="white"/>
<path d="M241.692 170.784C239.781 170.784 237.9 170.234 236.483 169.117C235.687 168.49 235.073 167.46 234.649 166.09C234.589 165.533 234.526 164.979 234.46 164.429C234.72 164.706 235.025 164.86 235.388 164.86C235.458 164.86 235.53 164.854 235.604 164.844C236.337 164.729 237.255 162.749 237.255 162.749C237.255 162.749 239.875 166.753 243.891 166.752C245.599 166.752 247.561 166.026 249.679 163.958C249.848 163.793 250.012 163.617 250.171 163.43C249.555 165.986 248.687 167.816 247.609 168.733C246.01 170.093 243.834 170.784 241.692 170.784Z" fill="#B9AFBE"/>
<path d="M249.96 149.918L235.851 151.009C235.311 151.051 234.868 151.449 234.773 151.978C233.225 160.647 233.864 167.054 236.483 169.116C239.487 171.484 244.582 171.308 247.61 168.732C250.012 166.69 251.369 160.091 251.238 151.083C251.235 150.752 251.096 150.447 250.853 150.224C250.608 150.001 250.294 149.892 249.96 149.918ZM241.697 173.956C239.087 173.956 236.506 173.18 234.517 171.613C229.576 167.72 230.597 157.29 231.645 151.419C231.993 149.466 233.623 147.994 235.605 147.841L249.715 146.749C250.915 146.657 252.108 147.069 252.994 147.876C253.882 148.685 254.398 149.837 254.416 151.037C254.521 158.283 253.783 167.656 249.668 171.154C247.481 173.014 244.57 173.956 241.697 173.956Z" fill="#371A45"/>
<path d="M241.881 173.591C241.568 173.413 241.411 173.291 241.205 173.137C241.014 172.989 240.829 172.838 240.66 172.68C240.311 172.367 239.993 172.035 239.7 171.688C239.117 170.991 238.6 170.253 238.197 169.464C237.362 167.902 236.86 166.221 236.613 164.54C236.506 163.696 236.414 162.857 236.409 162.018C236.365 161.175 236.409 160.37 236.437 159.543C236.477 158.721 236.544 157.898 236.654 157.077C236.777 156.246 236.893 155.461 237.2 154.595C237.276 154.376 237.514 154.263 237.733 154.34C237.937 154.413 238.049 154.624 238 154.83L237.988 154.885C237.823 155.565 237.764 156.396 237.735 157.169C237.711 157.957 237.726 158.749 237.769 159.541C237.857 161.137 238.027 162.695 238.399 164.181C238.773 165.665 239.368 167.071 240.188 168.284C240.582 168.901 241.063 169.446 241.568 169.938C241.821 170.184 242.09 170.41 242.365 170.608C242.501 170.712 242.64 170.802 242.779 170.888C242.902 170.965 243.084 171.063 243.128 171.077C243.875 171.307 244.296 172.099 244.067 172.847C243.839 173.596 243.044 174.018 242.296 173.787C242.197 173.757 242.105 173.717 242.018 173.669L241.881 173.591Z" fill="#371A45"/>
<path d="M218.49 109.797C217.888 109.797 217.312 109.454 217.045 108.87C216.68 108.073 217.029 107.129 217.827 106.763C230.71 100.862 238.603 102.627 238.933 102.703C239.787 102.905 240.316 103.76 240.114 104.616C239.911 105.468 239.061 105.995 238.209 105.797C238.109 105.776 230.918 104.261 219.152 109.652C218.936 109.752 218.711 109.797 218.49 109.797Z" fill="#371A45"/>
<path d="M145.741 109.958C145.741 109.958 133.124 147.841 98.4945 160.069V183.307H145.741V109.958Z" fill="white"/>
<path d="M145.741 109.956V183.306H98.4956V160.067C133.123 147.841 145.741 109.956 145.741 109.956Z" fill="white"/>
<path d="M131.525 173.961H127.651L125.503 165.241C126.16 164.417 126.798 163.58 127.419 162.74C127.515 166.048 129.458 168.877 132.231 170.264C131.98 171.584 131.743 172.819 131.525 173.961ZM132.961 154.382C134.158 152.375 135.265 150.378 136.279 148.425C135.945 150.274 135.616 152.082 135.296 153.836C134.488 153.912 133.704 154.095 132.961 154.382Z" fill="#B9AFBE"/>
<path d="M100.082 181.718H144.153V117.854C142.404 121.523 139.868 126.25 136.419 131.321C129.592 141.354 117.788 154.581 100.082 161.183V181.718ZM147.33 184.896H96.9048V158.945L97.9659 158.571C131.434 146.752 144.109 109.828 144.235 109.455L147.33 100.186V184.896Z" fill="#371A45"/>
<path d="M234.289 183.306H131.326C131.326 183.306 136.995 154.809 142.144 124.047C142.941 119.28 143.728 114.457 144.479 109.68C150.739 69.7845 210.407 95.7995 210.407 95.7995C210.407 95.7995 212.738 98.9899 215.946 105.282C222.582 118.291 232.978 144.571 234.289 183.306Z" fill="white"/>
<path d="M133.258 181.719H232.64C230.511 129.76 211.732 100.561 209.367 97.0823C205.455 95.4604 174.406 83.1325 157.166 92.6009C151.067 95.9501 147.326 101.778 146.046 109.925C141.221 140.67 134.854 173.578 133.258 181.719ZM235.933 184.896H129.39L129.767 182.997C129.843 182.617 137.387 144.602 142.908 109.431C144.347 100.261 148.63 93.6611 155.639 89.8134C175.34 79.0003 209.596 93.7103 211.044 94.3404L211.439 94.5125L211.692 94.86C211.922 95.1742 217.363 102.71 223.1 117.429C228.369 130.95 234.862 153.347 235.877 183.253L235.933 184.896Z" fill="#371A45"/>
<path d="M128.719 162.681C128.825 166.758 132.218 169.978 136.295 169.872C140.373 169.767 143.594 166.374 143.488 162.296C143.381 158.217 139.989 154.997 135.91 155.103C131.832 155.209 128.613 158.602 128.719 162.681Z" fill="white"/>
<path d="M136.127 168.574C132.843 168.573 130.104 165.956 130.018 162.646C130.003 162.036 130.076 161.436 130.235 160.863C131.591 162.51 133.647 163.558 135.934 163.558C135.998 163.558 136.064 163.557 136.129 163.556C136.756 163.538 137.362 163.445 137.939 163.282L137.678 168.368C137.224 168.489 136.75 168.559 136.26 168.572C136.215 168.573 136.172 168.574 136.127 168.574Z" fill="#B9AFBE"/>
<path d="M136.106 156.403C136.052 156.403 135.999 156.403 135.945 156.404C134.318 156.447 132.808 157.119 131.69 158.298C130.57 159.477 129.977 161.022 130.019 162.647C130.107 166.001 132.919 168.645 136.261 168.572C139.616 168.485 142.273 165.684 142.186 162.33C142.144 160.706 141.471 159.194 140.292 158.075C139.153 156.991 137.672 156.403 136.106 156.403ZM136.099 171.177C131.412 171.177 127.54 167.426 127.418 162.714C127.357 160.394 128.204 158.19 129.802 156.507C131.399 154.824 133.557 153.864 135.875 153.803C138.206 153.744 140.401 154.589 142.084 156.186C143.767 157.784 144.727 159.942 144.788 162.263C144.912 167.051 141.118 171.048 136.33 171.173C136.252 171.175 136.176 171.177 136.099 171.177Z" fill="#371A45"/>
<path d="M140.737 148.737C140.775 148.107 140.807 147.482 140.834 146.86C140.862 147.416 140.885 147.979 140.906 148.545C140.849 148.608 140.793 148.673 140.737 148.737Z" fill="#B9AFBE"/>
<path d="M146.792 183.99L185.368 185.973C189.934 186.208 193.864 182.665 194.101 178.093L195.155 157.565C195.36 153.562 192.667 150.055 188.926 149.087C188.396 148.945 187.845 148.864 187.275 148.834L148.706 146.85C144.133 146.613 140.203 150.158 139.973 154.73L139.134 170.989L138.914 175.258C138.677 179.829 142.226 183.755 146.792 183.99Z" fill="white"/>
<path d="M168.08 174.419L166.877 174.418C167.279 174.35 167.674 174.277 168.058 174.198C168.065 174.272 168.073 174.346 168.08 174.419ZM147.328 173.961H140.571L140.683 171.795C142.501 172.641 144.777 173.386 147.627 173.943L147.328 173.961Z" fill="#B9AFBE"/>
<path d="M185.448 184.388C189.147 184.581 192.323 181.72 192.513 178.013L193.568 157.484C193.759 153.779 190.899 150.609 187.194 150.418L148.622 148.435C146.837 148.343 145.116 148.959 143.777 150.166C142.437 151.375 141.649 153.023 141.558 154.808L140.501 175.339C140.41 177.124 141.025 178.847 142.233 180.185C143.441 181.524 145.09 182.313 146.875 182.404L185.448 184.388ZM185.8 187.575C185.628 187.575 185.457 187.571 185.286 187.562H185.284L146.713 185.578C144.078 185.443 141.65 184.283 139.874 182.314C138.097 180.344 137.193 177.81 137.328 175.176L138.383 154.645C138.664 149.191 143.338 144.984 148.784 145.261L187.357 147.245C192.813 147.525 197.023 152.192 196.743 157.646L195.687 178.177C195.55 180.81 194.392 183.24 192.422 185.016C190.582 186.677 188.248 187.575 185.8 187.575Z" fill="#371A45"/>
<path d="M145.253 183.758C145.747 183.889 146.259 183.966 146.793 183.99L185.369 185.973C188.713 186.143 191.718 184.29 193.176 181.479C193.708 180.459 194.035 179.312 194.097 178.093L194.568 168.974L194.723 165.965L195.156 157.565C195.391 152.993 191.841 149.068 187.276 148.833L178.94 148.407C182.744 149.327 185.497 152.865 185.29 156.907L184.724 167.996L184.237 177.441C184.001 182.008 180.07 185.557 175.505 185.32L145.253 183.758Z" fill="white"/>
<path d="M182.685 184.245L185.45 184.388C187.234 184.48 188.953 183.866 190.293 182.658C191.631 181.448 192.419 179.801 192.512 178.014L193.565 157.483C193.659 155.697 193.044 153.977 191.837 152.637C190.628 151.298 188.979 150.51 187.192 150.418L184.709 150.289C186.187 152.132 187.005 154.495 186.876 156.99L185.823 177.521C185.689 180.096 184.578 182.479 182.685 184.245ZM185.806 187.575C185.633 187.575 185.461 187.57 185.286 187.562L146.712 185.577C146.093 185.549 145.466 185.456 144.858 185.301L145.332 182.174L175.587 183.733C177.369 183.825 179.09 183.21 180.43 182.003C181.768 180.794 182.556 179.144 182.649 177.359L183.702 156.828C183.869 153.604 181.709 150.71 178.568 149.948L179.023 146.816L187.355 147.244C189.99 147.38 192.419 148.54 194.196 150.509C195.972 152.479 196.877 155.014 196.739 157.648L195.686 178.176C195.551 180.81 194.391 183.24 192.421 185.018C190.582 186.677 188.249 187.575 185.806 187.575Z" fill="#371A45"/>
<path d="M169.544 166.56C169.51 167.318 170.298 173.497 170.298 173.497C170.298 173.497 172.238 173.587 174.623 173.696C177.602 173.831 180.158 170.856 180.333 167.052C180.505 163.248 178.232 160.053 175.253 159.916C173.242 159.826 170.926 159.719 170.926 159.719C170.926 159.719 169.6 165.323 169.544 166.56Z" fill="#22A7F0"/>
<path d="M170.735 166.61C170.733 166.717 170.753 167.467 171.316 172.039C171.339 172.221 171.488 172.359 171.673 172.367L174.678 172.505C177.01 172.609 178.999 170.14 179.142 166.997C179.213 165.422 178.809 163.931 178.005 162.799C177.262 161.757 176.265 161.157 175.199 161.107L172.178 160.969C171.99 160.965 171.832 161.084 171.793 161.262C170.853 165.392 170.746 166.399 170.735 166.61ZM174.818 174.892C174.735 174.892 174.653 174.889 174.569 174.886L171.565 174.748C170.214 174.687 169.116 173.67 168.951 172.33C168.321 167.219 168.345 166.7 168.354 166.505C168.387 165.78 168.762 163.837 169.469 160.733C169.766 159.429 170.962 158.521 172.286 158.588L175.307 158.726C177.123 158.809 178.77 159.766 179.946 161.417C181.059 162.981 181.618 165.002 181.523 167.107C181.324 171.46 178.34 174.89 174.818 174.892Z" fill="#371A45"/>
<path d="M165.217 166.362C165.043 170.167 167.318 173.361 170.297 173.499C173.276 173.635 175.831 170.66 176.005 166.855C176.178 163.049 173.905 159.855 170.926 159.721C167.947 159.583 165.39 162.558 165.217 166.362Z" fill="#22A7F0"/>
<path d="M176.008 166.854C175.972 167.644 175.833 168.395 175.606 169.094C175.681 165.391 173.441 162.325 170.522 162.19C168.162 162.082 166.068 163.93 165.214 166.595C165.211 166.516 165.214 166.44 165.218 166.361C165.393 162.555 167.947 159.585 170.928 159.719C173.906 159.854 176.178 163.047 176.008 166.854Z" fill="white"/>
<path d="M167.83 170.992C166.889 169.902 166.326 168.245 166.409 166.416C166.413 166.306 166.419 166.198 166.429 166.09C166.772 166.614 167.175 167.07 167.628 167.442C167.631 167.5 167.632 167.557 167.635 167.616C167.635 167.62 167.635 167.623 167.635 167.625C167.635 167.628 167.635 167.631 167.635 167.633C167.663 168.477 167.711 169.32 167.772 170.151C167.793 170.433 167.813 170.714 167.83 170.992Z" fill="#2976B4"/>
<path d="M166.409 166.416C166.265 169.559 168.035 172.202 170.351 172.307C171.412 172.355 172.464 171.848 173.3 170.878C174.204 169.823 174.743 168.376 174.816 166.8C174.887 165.226 174.484 163.734 173.677 162.602C172.934 161.56 171.939 160.958 170.872 160.909C168.537 160.805 166.552 163.275 166.409 166.416ZM170.498 174.694C170.413 174.694 170.329 174.692 170.244 174.688C166.612 174.522 163.825 170.764 164.026 166.307C164.23 161.853 167.335 158.357 170.981 158.53C172.795 158.612 174.443 159.568 175.618 161.22C176.732 162.785 177.292 164.804 177.195 166.91C177.1 169.014 176.358 170.974 175.106 172.431C173.847 173.897 172.219 174.694 170.498 174.694Z" fill="#371A45"/>
<path d="M158.792 185.65C158.782 185.65 158.77 185.65 158.76 185.649C158.101 185.632 157.583 185.083 157.601 184.425L157.978 170.811L151.574 166.308L152.497 147.061C152.528 146.403 153.096 145.907 153.743 145.928C154.401 145.959 154.907 146.518 154.876 147.174L154.017 165.112L160.397 169.596L159.983 184.491C159.965 185.138 159.436 185.65 158.792 185.65Z" fill="#371A45"/>
<path d="M228.643 157.217C228.643 157.217 232.213 160.058 232.371 164.441C232.552 169.508 229.382 171.563 229.382 171.563C229.382 171.563 215.507 178.666 193.249 173.947C193.249 173.947 186.697 165.666 193.996 160.993C193.996 160.993 217.488 164.22 228.643 157.217Z" fill="white"/>
<path d="M221.539 172.484C222.645 170.745 223.524 168.895 224.221 166.977C227.017 165.94 229.057 163.672 229.714 160.969C230.271 161.933 230.735 163.133 230.783 164.497C230.918 168.23 228.931 169.915 228.572 170.19C228.084 170.421 225.633 171.529 221.539 172.484Z" fill="#B9AFBE"/>
<path d="M194.182 172.518C214.309 176.617 227.372 170.759 228.57 170.191C228.93 169.916 230.917 168.231 230.782 164.498C230.695 162.082 229.303 160.179 228.406 159.194C217.529 165.091 198.164 163.103 194.393 162.646C193.144 163.565 192.427 164.653 192.207 165.957C191.767 168.584 193.458 171.441 194.182 172.518ZM208.328 177.166C203.789 177.166 198.629 176.711 192.92 175.502L192.359 175.382L192.003 174.933C191.851 174.741 188.282 170.163 189.074 165.433C189.468 163.073 190.836 161.129 193.138 159.656L193.632 159.34L194.211 159.419C194.44 159.45 217.266 162.484 227.799 155.872L228.752 155.274L229.633 155.973C229.802 156.109 233.776 159.328 233.957 164.384C234.17 170.285 230.405 172.793 230.245 172.896L230.105 172.977C229.668 173.202 221.718 177.166 208.328 177.166Z" fill="#371A45"/>
<path d="M167.616 129.737C166.38 129.737 165.141 129.698 163.9 129.619C161.25 129.453 158.582 129.111 155.923 128.575C152.842 127.963 149.77 127.097 146.728 125.97C145.723 125.591 144.729 125.194 143.76 124.773C143.721 124.755 143.68 124.739 143.64 124.721C143.936 122.963 144.228 121.197 144.519 119.43C144.658 119.482 144.797 119.531 144.937 119.581C147.799 120.607 150.744 121.422 153.694 122.007C156.364 122.545 159.12 122.905 161.882 123.08C163.146 123.16 164.419 123.199 165.697 123.199C167.689 123.199 169.691 123.103 171.681 122.908C172.852 122.789 174.031 122.638 175.19 122.459C189.816 120.158 202.887 112.714 212.28 101.855C213.043 103.211 213.915 104.833 214.856 106.719C205.423 118.779 191.738 126.677 176.862 129.015C175.725 129.191 174.585 129.337 173.442 129.453C171.514 129.64 169.569 129.737 167.616 129.737Z" fill="#B9AFBE"/>
<path d="M143.639 124.722C143.137 124.503 142.637 124.279 142.142 124.046C142.433 122.32 142.72 120.586 143.004 118.85C143.404 119.009 143.821 119.169 144.257 119.334C144.345 119.368 144.431 119.399 144.518 119.431C144.227 121.198 143.935 122.963 143.639 124.722ZM214.855 106.719C213.913 104.833 213.044 103.212 212.28 101.857C212.654 101.424 213.021 100.986 213.384 100.544C214.138 101.853 215.003 103.434 215.945 105.281C215.588 105.767 215.225 106.245 214.855 106.719Z" fill="#371A45"/>
<path d="M114.398 92.7273C119.595 101.305 126.955 108.621 136.065 113.776C137.923 114.824 139.848 115.785 141.841 116.648C142.81 117.068 143.803 117.463 144.81 117.844C147.85 118.973 150.922 119.838 154.007 120.45C156.664 120.985 159.331 121.327 161.982 121.493C165.186 121.698 168.376 121.634 171.521 121.327C172.668 121.212 173.809 121.067 174.942 120.891C195.687 117.627 214.109 103.563 221.933 82.4736C233.463 51.4092 217.627 16.8826 186.566 5.35049C180.584 3.1338 174.467 1.92098 168.415 1.6526C167.708 1.61368 166.997 1.59523 166.286 1.59318C164.387 1.57269 162.498 1.64235 160.622 1.80215C156.287 2.17297 152.026 3.01703 147.919 4.29542C143.812 5.5697 139.849 7.28649 136.114 9.40074C134.925 10.0727 133.759 10.7857 132.616 11.5396C130.904 12.6725 129.245 13.8894 127.649 15.2027C119.679 21.7154 113.282 30.3732 109.444 40.7212C102.81 58.5919 105.235 77.6038 114.398 92.7273Z" fill="white"/>
<path d="M114.535 92.6449C119.821 101.368 127.293 108.628 136.144 113.636C138.019 114.693 139.957 115.657 141.905 116.499C142.8 116.889 143.769 117.28 144.868 117.694C147.856 118.803 150.942 119.678 154.039 120.293C156.632 120.814 159.307 121.164 161.994 121.334C165.132 121.533 168.336 121.478 171.507 121.168C172.644 121.053 173.792 120.906 174.917 120.732C196.306 117.368 214.263 102.686 221.783 82.417C233.264 51.4872 217.44 16.9829 186.51 5.49851C180.642 3.32584 174.553 2.08373 168.408 1.81112C167.737 1.77423 167.043 1.75578 166.286 1.75167C164.398 1.73322 162.498 1.80292 160.637 1.96075C156.353 2.32559 152.091 3.16186 147.967 4.44701C143.879 5.71576 139.918 7.4293 136.192 9.54047C134.992 10.2189 133.819 10.9363 132.704 11.6721C130.963 12.8241 129.296 14.0539 127.75 15.3247C119.568 22.0128 113.29 30.8141 109.594 40.7756C103.199 58.0011 105 76.9054 114.535 92.6449ZM165.698 121.771C164.452 121.771 163.208 121.732 161.974 121.654C159.274 121.482 156.583 121.131 153.976 120.607C150.863 119.988 147.761 119.108 144.755 117.993C143.651 117.577 142.678 117.184 141.778 116.792C139.82 115.948 137.871 114.978 135.986 113.912C127.088 108.878 119.576 101.582 114.261 92.8109C104.676 76.9874 102.866 57.9806 109.294 40.6649C113.01 30.6481 119.322 21.7996 127.547 15.0767C129.101 13.7997 130.777 12.5638 132.528 11.4057C133.649 10.6657 134.829 9.94427 136.035 9.26172C139.781 7.1403 143.762 5.41857 147.872 4.14162C152.018 2.85032 156.304 2.00995 160.609 1.641C162.482 1.48318 164.392 1.41143 166.288 1.43193C167.049 1.43603 167.748 1.45448 168.424 1.49138C174.6 1.76604 180.722 3.01428 186.623 5.19924C217.719 16.7451 233.627 51.434 222.083 82.5276C214.523 102.908 196.47 117.667 174.969 121.047C173.837 121.222 172.683 121.371 171.538 121.486C169.596 121.675 167.643 121.771 165.698 121.771Z" fill="#371A45"/>
<path d="M175.813 119.134C184.389 116.43 192.199 111.935 198.54 105.901C204.781 99.9605 209.377 92.8612 212.21 84.8814C214.171 86.035 216.247 86.6903 218.363 86.8288C210.27 103.721 194.438 115.835 175.813 119.134ZM156.468 118.907C155.711 118.907 154.953 118.894 154.194 118.866C154.078 118.842 153.963 118.82 153.847 118.796C153.845 118.796 153.845 118.796 153.843 118.796C153.821 118.79 153.803 118.787 153.78 118.781C153.777 118.781 153.773 118.781 153.771 118.781C153.753 118.776 153.732 118.772 153.714 118.768C153.708 118.766 153.705 118.766 153.699 118.765C153.683 118.763 153.666 118.757 153.647 118.755C153.64 118.752 153.633 118.752 153.625 118.75C153.611 118.746 153.596 118.742 153.581 118.741C153.572 118.739 153.564 118.737 153.553 118.735C153.54 118.731 153.528 118.728 153.513 118.726C153.504 118.724 153.492 118.722 153.483 118.718C153.47 118.717 153.457 118.715 153.444 118.711C153.433 118.709 153.422 118.706 153.411 118.704C153.398 118.702 153.389 118.7 153.378 118.696C153.365 118.694 153.35 118.691 153.337 118.687C153.328 118.685 153.319 118.683 153.31 118.682C153.295 118.678 153.28 118.676 153.265 118.672C153.258 118.67 153.249 118.669 153.241 118.667C153.225 118.663 153.21 118.659 153.193 118.658C153.186 118.654 153.179 118.654 153.171 118.652C153.155 118.648 153.138 118.645 153.121 118.641C153.116 118.639 153.11 118.637 153.103 118.637C153.086 118.634 153.068 118.628 153.049 118.624C153.046 118.624 153.04 118.622 153.035 118.621C153.016 118.617 152.998 118.613 152.979 118.61C152.974 118.608 152.97 118.606 152.965 118.606C152.946 118.602 152.926 118.597 152.907 118.593C152.904 118.593 152.9 118.591 152.894 118.589C152.874 118.586 152.854 118.58 152.835 118.576C152.832 118.576 152.83 118.576 152.826 118.574C152.804 118.569 152.784 118.565 152.763 118.56C152.761 118.56 152.76 118.56 152.756 118.56C152.736 118.554 152.713 118.549 152.689 118.543H152.688C152.665 118.538 152.641 118.532 152.619 118.528L152.617 118.526C151.768 118.333 150.923 118.117 150.083 117.884C150.081 117.882 150.078 117.88 150.076 117.88C150.055 117.875 150.033 117.869 150.013 117.864C150.007 117.862 150.004 117.86 149.998 117.86C149.98 117.855 149.963 117.851 149.945 117.845C149.935 117.842 149.924 117.838 149.913 117.836C149.902 117.832 149.889 117.829 149.876 117.825C149.863 117.821 149.852 117.818 149.839 117.814C149.828 117.812 149.817 117.808 149.806 117.805C149.795 117.803 149.78 117.797 149.767 117.796C149.758 117.792 149.747 117.788 149.738 117.786C149.723 117.781 149.708 117.777 149.694 117.773C149.686 117.772 149.677 117.77 149.67 117.766C149.653 117.762 149.636 117.757 149.622 117.753C149.614 117.751 149.607 117.749 149.599 117.748C149.583 117.742 149.566 117.736 149.55 117.733C149.544 117.731 149.537 117.729 149.531 117.727C149.513 117.722 149.496 117.716 149.479 117.711C149.474 117.711 149.467 117.709 149.463 117.707C149.443 117.701 149.426 117.696 149.407 117.69C149.402 117.69 149.398 117.688 149.393 117.687C149.374 117.681 149.356 117.676 149.335 117.67C149.332 117.668 149.328 117.668 149.324 117.666C149.304 117.661 149.284 117.655 149.263 117.65C149.262 117.648 149.26 117.648 149.256 117.648C149.236 117.64 149.215 117.635 149.195 117.629C149.193 117.628 149.19 117.628 149.188 117.626C149.166 117.62 149.145 117.613 149.125 117.607C149.123 117.607 149.121 117.607 149.12 117.607C149.097 117.6 149.075 117.594 149.055 117.587C149.053 117.587 149.051 117.587 149.049 117.585C149.027 117.58 149.005 117.572 148.983 117.567C148.959 117.559 148.937 117.552 148.915 117.544C148.913 117.544 148.913 117.544 148.913 117.544C147.72 117.186 146.537 116.789 145.371 116.358C145.354 116.35 145.337 116.345 145.321 116.339C144.265 115.94 143.334 115.564 142.472 115.187C142.428 115.169 142.382 115.148 142.338 115.13C140.859 114.486 139.386 113.771 137.946 112.996C144.073 114.953 150.375 115.939 156.606 115.939C165.96 115.939 175.16 113.718 183.379 109.24C195.032 102.888 203.18 92.8464 206.927 80.6339C206.988 80.5509 207.049 80.466 207.108 80.3811C207.85 81.3095 208.657 82.1605 209.521 82.921C206.879 90.8011 202.447 97.7934 196.349 103.599C186.054 113.395 171.628 118.909 156.468 118.907ZM220.305 40.9749C219.627 40.8604 218.944 40.8014 218.258 40.794C218.101 38.7192 217.835 36.6629 217.464 34.6287C218.536 36.6869 219.485 38.806 220.305 40.9749Z" fill="#B9AFBE"/>
<path d="M115.452 92.0895C120.642 100.658 127.98 107.785 136.672 112.703C138.513 113.744 140.417 114.69 142.33 115.516C143.211 115.899 144.163 116.283 145.245 116.693C148.175 117.78 151.205 118.638 154.246 119.242C156.794 119.754 159.422 120.1 162.058 120.264C165.145 120.46 168.287 120.406 171.4 120.102C172.519 119.989 173.647 119.845 174.754 119.674C195.756 116.37 213.393 101.951 220.777 82.0446C232.053 51.6695 216.514 17.7844 186.137 6.50579C180.373 4.37139 174.392 3.15202 168.359 2.88265C167.695 2.8477 167.02 2.82919 166.28 2.82508C164.425 2.80863 162.554 2.87442 160.726 3.02864C156.521 3.38849 152.335 4.21099 148.284 5.47147C144.269 6.71963 140.378 8.40166 136.72 10.4744C135.541 11.1406 134.389 11.8459 133.295 12.5676C131.584 13.6986 129.948 14.9056 128.43 16.1538C120.393 22.7235 114.228 31.366 110.599 41.1497C104.319 58.0666 106.087 76.6325 115.452 92.0895ZM165.696 122.843C164.427 122.843 163.16 122.804 161.904 122.724C159.157 122.551 156.418 122.191 153.764 121.656C150.597 121.029 147.44 120.135 144.382 119C143.254 118.574 142.266 118.175 141.35 117.776C139.359 116.917 137.376 115.932 135.459 114.848C126.399 109.722 118.753 102.295 113.344 93.3664C103.588 77.2617 101.745 57.9185 108.289 40.2943C112.071 30.0973 118.495 21.0929 126.869 14.2476C128.449 12.9481 130.154 11.6917 131.936 10.5134C133.077 9.75879 134.278 9.0247 135.507 8.32968C139.318 6.17061 143.371 4.41869 147.553 3.11913C151.773 1.80518 156.134 0.949768 160.518 0.575523C162.424 0.413078 164.372 0.33905 166.298 0.361664C167.069 0.365776 167.787 0.384285 168.48 0.423355C174.756 0.700951 180.99 1.97172 186.995 4.19659C218.645 15.9461 234.834 51.2542 223.088 82.9021C215.392 103.644 197.017 118.667 175.132 122.107C173.981 122.286 172.808 122.436 171.645 122.553C169.667 122.746 167.676 122.843 165.696 122.843Z" fill="#371A45"/>
<path d="M115.757 91.9041C120.916 100.42 128.209 107.503 136.848 112.392C138.678 113.425 140.571 114.366 142.473 115.187C143.349 115.57 144.295 115.951 145.372 116.356C148.282 117.437 151.295 118.289 154.317 118.89C156.851 119.401 159.463 119.742 162.083 119.907C165.15 120.103 168.273 120.049 171.367 119.744C172.476 119.633 173.6 119.489 174.699 119.32C195.574 116.037 213.104 101.706 220.444 81.9206C231.65 51.7295 216.206 18.0494 186.015 6.83915C180.286 4.7169 174.341 3.50447 168.345 3.23893C167.684 3.20188 167.013 3.18336 166.28 3.1813C164.424 3.16071 162.575 3.22865 160.758 3.38509C156.579 3.7412 152.418 4.55839 148.391 5.81198C144.4 7.05116 140.533 8.72261 136.897 10.7831C135.725 11.4459 134.58 12.1458 133.492 12.8642C131.792 13.9902 130.166 15.1882 128.658 16.4273C120.67 22.9588 114.542 31.5486 110.935 41.2747C104.692 58.086 106.45 76.5399 115.757 91.9041ZM165.698 123.198C164.42 123.198 163.147 123.159 161.882 123.079C159.119 122.904 156.365 122.544 153.694 122.007C150.511 121.375 147.334 120.475 144.258 119.333C143.124 118.907 142.129 118.505 141.208 118.102C139.207 117.239 137.213 116.247 135.284 115.158C126.172 110.002 118.481 102.532 113.039 93.5508C103.226 77.353 101.373 57.8946 107.954 40.1673C111.759 29.9142 118.221 20.8551 126.644 13.9696C128.232 12.6645 129.948 11.3986 131.739 10.215C132.888 9.45542 134.097 8.71644 135.332 8.01863C139.164 5.84698 143.242 4.0829 147.448 2.77785C151.691 1.45634 156.081 0.593842 160.488 0.217148C162.406 0.0545349 164.366 -0.0154419 166.305 0.00308228C167.079 0.00720215 167.802 0.0257263 168.501 0.0648422C174.811 0.344788 181.081 1.62307 187.12 3.85854C218.954 15.6801 235.24 51.1923 223.423 83.026C215.685 103.888 197.202 118.997 175.189 122.46C174.03 122.639 172.851 122.789 171.682 122.908C169.691 123.102 167.688 123.198 165.698 123.198Z" fill="#371A45"/>
<path d="M123.985 104.747C160.276 127.582 207.188 107.783 207.662 65.3173C207.986 36.4249 179.946 13.8028 152.176 15.2712C131.966 16.3389 112.702 26.223 105.785 58.0424C105.785 58.0424 104.898 72.6021 109.29 82.054C113.681 91.5078 119.547 99.959 119.547 99.959L123.985 104.747Z" fill="#371A45"/>
<path d="M207.661 65.3182C207.187 107.783 160.274 127.582 123.983 104.75L123.085 103.778C162.047 108.806 199.422 83.816 200.699 40.89C205.159 48.0838 207.759 56.4019 207.661 65.3182Z" fill="#220F2D"/>
<path d="M154.193 118.866C170.179 119.447 185.541 113.883 196.348 103.598C206.669 93.7758 212.215 80.5558 212.387 65.3729C212.542 51.4791 206.637 38.0816 195.759 27.6476C183.847 16.2211 167.375 9.89054 151.693 10.7217C142.926 11.1857 135.134 13.1406 128.527 16.5358C120.604 23.05 114.522 31.5997 110.934 41.2731C104.692 58.0861 106.45 76.5412 115.757 91.9036C120.916 100.421 128.209 107.504 136.848 112.39C138.678 113.425 140.571 114.365 142.472 115.186C143.349 115.57 144.295 115.951 145.372 116.356C148.243 117.422 151.212 118.267 154.193 118.866ZM156.459 122.086C155.623 122.086 154.786 122.07 153.947 122.037L153.699 122.009C150.511 121.374 147.334 120.476 144.258 119.334C143.124 118.906 142.129 118.505 141.208 118.103C139.207 117.238 137.212 116.247 135.284 115.158C126.172 110.002 118.481 102.531 113.039 93.5498C103.226 77.3521 101.373 57.8944 107.954 40.1676C111.759 29.9132 118.221 20.8551 126.644 13.9697L126.771 13.8668L126.917 13.7902C133.959 10.1407 142.239 8.0406 151.526 7.54835C168.079 6.67482 185.426 13.3302 197.96 25.3539C209.478 36.4031 215.73 50.6278 215.564 65.4072C215.383 81.4697 209.496 95.4724 198.539 105.9C187.655 116.258 172.436 122.086 156.459 122.086Z" fill="#371A45"/>
<path d="M125.007 103.513C142.901 114.69 164.668 115.82 181.859 106.448C197.049 98.1716 205.876 83.1717 206.074 65.3001C206.21 52.9879 200.975 41.1131 191.333 31.8646C180.77 21.7334 166.168 16.1225 152.261 16.8568C128.202 18.1294 113.097 32.0586 107.364 58.2564C107.296 59.6359 106.764 72.8505 110.73 81.3846C114.772 90.0849 120.156 98.0371 120.791 98.9633L125.007 103.513ZM156.607 115.938C145.184 115.938 133.53 112.631 123.138 106.092L122.961 105.981L118.242 100.865C117.999 100.515 112.247 92.1907 107.848 82.7245C103.34 73.0188 104.161 58.5572 104.198 57.9457L104.232 57.7062C110.286 29.8538 126.389 15.0419 152.093 13.6842C166.859 12.9104 182.35 18.8439 193.534 29.5728C203.817 39.4348 209.399 52.1349 209.252 65.3358C209.038 84.3909 199.61 100.394 183.379 109.239C175.159 113.718 165.96 115.938 156.607 115.938Z" fill="#371A45"/>
<path d="M234.108 61.3963C235.401 73.1603 229.538 83.7849 221.015 85.1266C212.489 86.4682 204.529 78.0194 203.237 66.2554C201.944 54.4913 207.807 43.8667 216.333 42.5251C224.856 41.1835 232.815 49.6323 234.108 61.3963Z" fill="white"/>
<path d="M219.233 83.6769C216.893 83.6769 214.574 82.8384 212.448 81.2146C208.988 78.5702 206.411 74.0967 205.28 68.9192C205.754 68.9775 206.234 69.0094 206.715 69.0094C207.302 69.0094 207.895 68.9634 208.491 68.8714C209.395 68.7281 210.316 68.4858 211.24 68.155C211.487 69.8319 211.923 71.4451 212.519 72.9469C212.584 73.1432 212.653 73.3396 212.724 73.5342C214.024 77.0365 216.203 79.5023 218.752 80.7405C219.276 81.0536 219.821 81.3207 220.387 81.5436C221.598 82.0195 222.829 82.2565 224.054 82.2565C224.176 82.2565 224.298 82.2547 224.42 82.2494C223.282 82.9039 222.06 83.3532 220.769 83.5548C220.258 83.6362 219.745 83.6769 219.233 83.6769ZM227.078 48.4639C226.657 48.31 226.235 48.1862 225.81 48.0907C225.815 47.7899 225.814 47.4875 225.805 47.1832C226.245 47.5795 226.671 48.0075 227.078 48.4639Z" fill="#B9AFBE"/>
<path d="M218.117 43.9723C217.605 43.9723 217.092 44.0121 216.58 44.0936C208.893 45.3032 203.619 55.166 204.817 66.079C205.516 72.44 208.368 78.0966 212.448 81.2146C215.039 83.1955 217.916 84.0049 220.768 83.5558C228.454 82.3463 233.731 72.4834 232.53 61.5686C231.833 55.2095 228.979 49.5528 224.902 46.4348C222.776 44.8106 220.456 43.9723 218.117 43.9723ZM219.211 86.8567C216.18 86.8567 213.21 85.7974 210.518 83.7405C205.692 80.0503 202.464 73.7401 201.66 66.4267C200.276 53.8514 206.748 42.4242 216.085 40.9539C219.815 40.3672 223.533 41.3903 226.832 43.9107C231.657 47.5991 234.886 53.9094 235.69 61.2209C237.071 73.798 230.6 85.2253 221.262 86.6955C220.578 86.8024 219.893 86.8567 219.211 86.8567Z" fill="#371A45"/>
<path d="M236.102 69.8562C234.214 78.8769 227.204 84.0407 220.445 81.3877C213.689 78.7366 209.739 69.272 211.627 60.2513C213.515 51.2306 220.523 46.0668 227.282 48.7197C234.04 51.3709 237.989 60.8355 236.102 69.8562Z" fill="white"/>
<path d="M223.678 48.1838C222.108 48.1838 220.552 48.5871 219.064 49.3921C215.487 51.3239 212.833 55.2954 211.79 60.2859C209.921 69.216 213.833 78.6133 220.507 81.2332C223.235 82.3035 226.055 82.1248 228.665 80.7149C232.243 78.7831 234.895 74.8116 235.939 69.8228C237.807 60.8909 233.897 51.4937 227.221 48.8737C226.05 48.4138 224.859 48.1838 223.678 48.1838ZM224.053 82.2557C222.828 82.2557 221.599 82.0187 220.385 81.5428C213.566 78.8662 209.564 69.301 211.464 60.2169C212.529 55.1309 215.241 51.078 218.906 49.0984C221.604 47.6425 224.52 47.4567 227.343 48.5641C234.163 51.2407 238.164 60.8078 236.264 69.8901C235.199 74.9761 232.488 79.029 228.822 81.0086C227.285 81.8382 225.675 82.2557 224.053 82.2557Z" fill="#371A45"/>
<path d="M218.752 80.74C216.204 79.5025 214.025 77.0358 212.725 73.5346C212.654 73.3399 212.584 73.1436 212.518 72.9473C213.858 76.3181 216.019 79.1148 218.752 80.74Z" fill="#8C7B94"/>
<path d="M222.657 81.6541C222.287 81.6541 221.919 81.6294 221.554 81.5836C221.204 81.4884 220.855 81.3721 220.506 81.2347C215.856 79.411 212.549 74.2977 211.601 68.3457C211.486 66.8833 211.527 65.4049 211.71 63.9531C213.768 68.3263 217.318 70.7526 221.087 70.7526C223.075 70.7526 225.124 70.0777 227.046 68.6576C230.644 66.0005 232.97 61.3435 233.601 56.3677C233.802 56.787 233.985 57.2328 234.156 57.6892C237.014 65.3926 234.533 75.184 228.613 79.559C226.692 80.9792 224.645 81.6541 222.657 81.6541Z" fill="#B9AFBE"/>
<path d="M221.555 81.5841C220.59 81.4607 219.646 81.1773 218.751 80.7422C216.018 79.1167 213.858 76.3192 212.517 72.9483C212.024 71.4645 211.724 69.914 211.6 68.3469C212.549 74.2986 215.856 79.4101 220.506 81.2357C220.855 81.3724 221.205 81.4874 221.555 81.5841Z" fill="#371A45"/>
<path d="M223.339 48.715C222.992 48.715 222.644 48.7417 222.299 48.8005C216.79 49.7124 212.906 57.7554 213.818 66.3665C214.386 71.7202 216.644 76.3775 219.861 78.8264C221.634 80.1764 223.572 80.7267 225.462 80.4133C230.972 79.5014 234.855 71.4566 233.943 62.8473C233.377 57.4936 231.118 52.8345 227.902 50.3856C226.452 49.2831 224.892 48.715 223.339 48.715ZM224.4 83.6779C222.16 83.6779 219.951 82.8889 217.935 81.3554C214.037 78.3865 211.315 72.9082 210.658 66.7014C209.538 56.1222 214.423 46.8824 221.78 45.6642C224.557 45.2064 227.337 45.9634 229.825 47.8566C233.726 50.8255 236.445 56.3039 237.104 62.5124C238.224 73.0898 233.339 82.3296 225.982 83.5478C225.455 83.6351 224.927 83.6779 224.4 83.6779Z" fill="#371A45"/>
<path d="M122.61 87.283C115.735 81.7339 111.624 75.1777 110.872 65.7296C110.801 64.7996 110.762 63.835 110.752 62.8453C110.749 62.6162 110.751 62.3909 110.758 62.1637L110.76 62.1503C110.881 60.142 111.142 57.5119 111.683 54.5679C113.31 45.6916 117.471 33.9715 128.043 27.9314C136.447 23.1294 144.906 21.6641 151.781 21.6641C161.079 21.6641 167.489 24.3386 166.998 25.0568C166.998 25.0568 139.927 28.226 125.813 44.6519C125.798 44.6692 125.784 44.6866 125.769 44.7039C122.801 48.1639 120.824 52.3652 120.013 56.8515C118.94 62.7818 119.069 67.0274 119.327 70.7608C120.116 82.1112 122.61 87.283 122.61 87.283Z" fill="#C3BAC7"/>
<path d="M189.899 60.8191C186.385 60.8191 182.928 58.2187 181.551 54.2067C179.873 49.3261 181.909 44.2028 186.099 42.7641C186.845 42.5088 187.609 42.3865 188.37 42.3865C191.882 42.3865 195.34 44.985 196.719 48.997C198.396 53.8794 196.358 59.0028 192.17 60.4414C191.423 60.6968 190.659 60.8191 189.899 60.8191Z" fill="#C3BAC7"/>
<path d="M192.91 70.67C192.377 70.2551 191.924 69.6852 191.621 68.997C190.759 67.0473 191.419 64.8676 193.092 64.1294C193.47 63.9627 193.867 63.8844 194.265 63.8844C194.827 63.8844 195.39 64.041 195.905 64.3293C195.017 66.524 194.015 68.637 192.91 70.67Z" fill="#C3BAC7"/>
<path d="M195.036 71.4362C194.293 71.4362 193.546 71.16 192.912 70.6675C194.016 68.6345 195.018 66.5216 195.906 64.3289C196.647 64.7448 197.289 65.4319 197.68 66.3237C198.54 68.2735 197.881 70.4513 196.208 71.1899C195.83 71.3563 195.434 71.4362 195.036 71.4362Z" fill="#BCB7C0"/>
<path d="M310.346 176.987C289.999 221.096 230.181 253.048 159.551 253.048C88.9212 253.048 29.1028 221.096 8.75658 176.987H310.346Z" fill="#371A45"/>
<path d="M206.898 226.123L205.021 226.414C204.646 226.471 204.349 226.767 204.293 227.142L204.002 229.019L203.712 227.142C203.655 226.767 203.361 226.471 202.984 226.414L201.108 226.123L202.984 225.834C203.361 225.776 203.655 225.481 203.712 225.104L204.002 223.228L204.293 225.104C204.349 225.481 204.646 225.776 205.021 225.834L206.898 226.123Z" fill="#FFE266"/>
<path d="M158.495 217.795L156.618 218.086C156.243 218.143 155.947 218.439 155.889 218.814L155.599 220.691L155.31 218.814C155.251 218.439 154.956 218.143 154.581 218.086L152.704 217.795L154.581 217.506C154.956 217.448 155.251 217.153 155.31 216.776L155.599 214.9L155.889 216.776C155.947 217.153 156.243 217.448 156.618 217.506L158.495 217.795Z" fill="#FFE266"/>
<path d="M176.491 236.358L174.602 236.649C174.224 236.707 173.926 237.005 173.868 237.383L173.577 239.271L173.285 237.383C173.227 237.005 172.929 236.707 172.552 236.649L170.664 236.358L172.552 236.066C172.929 236.008 173.227 235.711 173.285 235.332L173.577 233.444L173.868 235.332C173.926 235.711 174.224 236.008 174.602 236.066L176.491 236.358Z" fill="#FFE266"/>
<path d="M262.045 215.044L259.499 215.438C258.989 215.517 258.587 215.917 258.508 216.427L258.116 218.973L257.723 216.427C257.643 215.917 257.244 215.517 256.733 215.438L254.187 215.044L256.733 214.651C257.244 214.573 257.643 214.172 257.723 213.662L258.116 211.116L258.508 213.662C258.587 214.172 258.989 214.573 259.499 214.651L262.045 215.044Z" fill="#FFE266"/>
<path d="M32.9842 184.856L30.7751 185.198C30.3324 185.266 29.9852 185.613 29.9169 186.056L29.5758 188.265L29.2347 186.056C29.1664 185.613 28.819 185.266 28.3765 185.198L26.1675 184.856L28.3765 184.515C28.819 184.447 29.1664 184.1 29.2348 183.657L29.5758 181.448L29.9169 183.657C29.9852 184.1 30.3324 184.447 30.7751 184.515L32.9842 184.856Z" fill="#FFE266"/>
<path d="M128.333 210.597L125.94 210.967C125.462 211.04 125.085 211.416 125.01 211.897L124.641 214.289L124.271 211.897C124.198 211.416 123.822 211.04 123.342 210.967L120.949 210.597L123.342 210.227C123.822 210.153 124.198 209.776 124.271 209.298L124.641 206.904L125.01 209.298C125.085 209.776 125.462 210.153 125.94 210.227L128.333 210.597Z" fill="#FFE266"/>
<path d="M233.834 226.747L231.557 227.099C231.1 227.168 230.741 227.527 230.672 227.984L230.32 230.261L229.968 227.984C229.898 227.527 229.539 227.168 229.084 227.099L226.805 226.747L229.084 226.395C229.539 226.324 229.898 225.966 229.968 225.51L230.32 223.233L230.672 225.51C230.741 225.966 231.1 226.324 231.557 226.395L233.834 226.747Z" fill="#FFE266"/>
<path d="M94.9806 210.039L93.1048 210.329C92.728 210.387 92.4334 210.682 92.3751 211.057L92.0857 212.934L91.7963 211.057C91.738 210.682 91.4434 210.387 91.0666 210.329L89.1908 210.039L91.0666 209.749C91.4434 209.691 91.738 209.396 91.7963 209.02L92.0857 207.143L92.3751 209.02C92.4334 209.396 92.728 209.691 93.1048 209.749L94.9806 210.039Z" fill="#FFE266"/>
<path d="M99.8939 233.255L98.6458 231.823C98.396 231.537 97.9889 231.446 97.6402 231.597L95.8987 232.354L97.33 231.107C97.6173 230.857 97.7089 230.45 97.557 230.102L96.7991 228.36L98.0472 229.791C98.2971 230.079 98.7041 230.17 99.0528 230.018L100.793 229.261L99.362 230.508C99.0757 230.759 98.9841 231.166 99.1361 231.514L99.8939 233.255Z" fill="#FFE266"/>
<path d="M135.465 235.556L133.293 235.891C132.858 235.959 132.516 236.3 132.449 236.735L132.113 238.908L131.778 236.735C131.711 236.3 131.37 235.959 130.935 235.891L128.762 235.556L130.935 235.221C131.37 235.153 131.711 234.812 131.778 234.376L132.113 232.205L132.449 234.376C132.516 234.812 132.858 235.153 133.293 235.221L135.465 235.556Z" fill="#FFE266"/>
<path d="M66.9383 217.195L65.0614 217.485C64.6856 217.544 64.3911 217.838 64.3328 218.214L64.0434 220.091L63.753 218.214C63.6957 217.838 63.4001 217.544 63.0243 217.485L61.1474 217.195L63.0243 216.905C63.4001 216.847 63.6957 216.553 63.753 216.177L64.0434 214.3L64.3328 216.177C64.3911 216.553 64.6856 216.847 65.0614 216.905L66.9383 217.195Z" fill="#FFE266"/>
<path d="M289.924 186.956L287.704 187.299C287.259 187.368 286.909 187.717 286.84 188.162L286.498 190.383L286.156 188.162C286.087 187.717 285.738 187.368 285.292 187.299L283.072 186.956L285.292 186.613C285.738 186.545 286.087 186.196 286.156 185.75L286.498 183.53L286.84 185.75C286.909 186.196 287.259 186.545 287.704 186.613L289.924 186.956Z" fill="#FFE266"/>
<path d="M244.936 215.176H173.49L177.109 206.17L182.487 192.795L228.561 193.28L239.153 207.441L244.936 215.176Z" fill="white"/>
<path d="M175.84 213.585H241.764L227.762 194.862L183.557 194.396L175.84 213.585ZM248.109 216.763H171.137L181.42 191.195L229.366 191.701L248.109 216.763Z" fill="#371A45"/>
<path d="M235.151 210.044C232.947 210.05 230.743 210.008 228.539 209.991L221.929 209.856C219.727 209.823 217.519 209.728 215.326 209.675C213.127 209.633 210.927 209.609 208.724 209.608C204.322 209.544 199.916 209.556 195.509 209.52L188.901 209.461C186.697 209.419 184.493 209.405 182.291 209.347C184.491 209.228 186.694 209.166 188.898 209.079L195.506 208.919C199.914 208.832 204.322 208.824 208.73 208.827C210.934 208.852 213.139 208.9 215.345 208.966C217.554 209.054 219.751 209.132 221.953 209.258L228.553 209.61C230.752 209.756 232.952 209.875 235.151 210.044Z" fill="#371A45"/>
<path d="M232.205 205.186C230.18 205.207 228.155 205.178 226.128 205.174L220.05 205.081C215.998 205.013 211.954 204.843 207.905 204.726L195.769 204.315C193.746 204.248 191.727 204.189 189.704 204.233C188.999 204.231 188.295 204.232 187.59 204.233C186.272 204.235 184.948 204.238 183.626 204.218C187.665 203.964 191.72 203.667 195.778 203.714C199.832 203.711 203.883 203.82 207.933 203.946C211.98 204.084 216.029 204.274 220.073 204.483L226.138 204.794C228.16 204.926 230.184 205.031 232.205 205.186Z" fill="#371A45"/>
<path d="M229.161 200.995C227.298 200.985 225.442 200.925 223.585 200.891L218.016 200.705L206.877 200.368L195.74 199.975C193.884 199.904 192.03 199.848 190.174 199.826C188.311 199.76 186.451 199.719 184.599 199.629C188.318 199.489 192.025 199.361 195.75 199.374C199.469 199.373 203.187 199.473 206.902 199.588C210.616 199.725 214.33 199.863 218.042 200.108L223.607 200.511C225.46 200.674 227.312 200.809 229.161 200.995Z" fill="#371A45"/>
<path d="M226.436 196.971C223.069 197.314 219.682 197.181 216.31 197.131C212.938 197.063 209.567 196.949 206.197 196.848L196.085 196.48C194.402 196.411 192.717 196.349 191.033 196.315C189.358 196.257 187.637 196.267 185.994 196.156L191.031 195.933C192.72 195.889 194.409 195.884 196.097 195.88C199.475 195.877 202.848 195.965 206.221 196.067C209.594 196.189 212.965 196.324 216.334 196.534C218.019 196.639 219.699 196.738 221.384 196.817C223.068 196.908 224.751 197.013 226.436 196.971Z" fill="#371A45"/>
<path d="M280.66 203.985H209.212L218.214 181.605L225.103 181.677L264.286 182.093L280.66 203.985Z" fill="white"/>
<path d="M167.282 180.653L141.592 203.841C141.592 203.841 164.487 202.662 175.115 202.692C183.78 202.717 212.763 204.936 212.763 204.936L219.503 181.605L167.282 180.653Z" fill="white"/>
<path d="M213.162 208.394C213.162 208.394 189.869 206.607 178.803 206.22L179.534 204.4C190.849 204.858 212.39 206.502 212.641 206.521L213.929 206.62L214.233 205.574H235.772L237.168 207.441H213.436L213.162 208.394Z" fill="#B9AFBE"/>
<path d="M239.154 207.441H237.169L235.774 205.573H237.758L239.154 207.441ZM178.803 206.22C178.2 206.199 177.633 206.181 177.11 206.17L177.846 204.337C178.379 204.354 178.943 204.375 179.536 204.399L178.803 206.22Z" fill="#371A45"/>
<path d="M280.66 203.985H209.212L218.214 181.605L225.103 181.677L264.286 182.093L280.66 203.985Z" fill="white"/>
<path d="M211.564 202.395H277.488L263.485 183.672L219.283 183.205L211.564 202.395ZM283.834 205.573H206.861L217.144 180.005L265.09 180.51L283.834 205.573Z" fill="#371A45"/>
<path d="M270.874 198.854C268.67 198.861 266.466 198.818 264.262 198.801L257.652 198.667C255.452 198.634 253.243 198.538 251.049 198.486C248.849 198.443 246.649 198.419 244.449 198.418C240.044 198.353 235.64 198.367 231.234 198.33L224.625 198.272C222.421 198.228 220.219 198.215 218.013 198.157C220.215 198.038 222.419 197.975 224.621 197.889L231.23 197.73C235.638 197.641 240.044 197.635 244.455 197.638C246.657 197.663 248.863 197.711 251.069 197.777C253.279 197.864 255.475 197.943 257.675 198.069L264.276 198.421C266.476 198.566 268.676 198.685 270.874 198.854Z" fill="#371A45"/>
<path d="M267.929 193.996C265.903 194.017 263.877 193.987 261.851 193.984L255.774 193.892C251.72 193.824 247.679 193.654 243.631 193.537L231.491 193.125C229.47 193.059 227.452 192.999 225.426 193.044C224.719 193.042 224.013 193.043 223.304 193.044C221.987 193.046 220.67 193.047 219.35 193.029C223.39 192.775 227.446 192.477 231.501 192.525C235.557 192.522 239.606 192.631 243.656 192.756C247.706 192.893 251.754 193.084 255.797 193.294L261.863 193.604C263.885 193.736 265.907 193.841 267.929 193.996Z" fill="#371A45"/>
<path d="M264.885 190.327C263.022 190.316 261.164 190.256 259.306 190.222L253.737 190.036L242.6 189.699L231.464 189.306C229.606 189.236 227.752 189.18 225.897 189.158C224.033 189.091 222.174 189.051 220.32 188.961C224.039 188.821 227.749 188.692 231.473 188.706C235.194 188.704 238.91 188.805 242.625 188.919C246.34 189.056 250.053 189.194 253.766 189.44L259.33 189.842C261.181 190.005 263.037 190.14 264.885 190.327Z" fill="#371A45"/>
<path d="M262.16 186.821C258.793 187.166 255.405 187.033 252.034 186.982C248.66 186.915 245.291 186.801 241.92 186.699L231.81 186.331C230.126 186.262 228.439 186.201 226.757 186.167C225.082 186.108 223.359 186.118 221.719 186.007L226.755 185.785C228.445 185.74 230.133 185.735 231.822 185.732C235.198 185.728 238.573 185.817 241.945 185.919C245.318 186.041 248.69 186.175 252.059 186.385C253.742 186.49 255.424 186.589 257.107 186.668C258.791 186.76 260.476 186.864 262.16 186.821Z" fill="#371A45"/>
<path d="M1.38057 175.58L11.1692 175.403L20.9579 175.268L40.5352 175.005L79.6897 174.677C92.7411 174.545 105.794 174.536 118.845 174.468L158 174.403L197.154 174.466C210.205 174.536 223.258 174.543 236.309 174.676L275.463 175.004L295.041 175.268L304.829 175.402L314.618 175.58C315.395 175.593 316.013 176.235 316 177.01C315.984 177.769 315.371 178.376 314.618 178.39L304.829 178.568L295.041 178.702L275.463 178.966L236.309 179.295C223.258 179.427 210.205 179.434 197.154 179.504L158 179.567L118.845 179.502C105.794 179.434 92.7411 179.425 79.6897 179.293L40.5352 178.965L20.9579 178.701L11.1692 178.567L1.38057 178.39C0.60413 178.377 -0.0136983 177.736 0.000230976 176.96C0.0141602 176.201 0.628618 175.594 1.38057 175.58Z" fill="#371A45"/>
<path d="M133.744 200.444L156.22 179.55C156.31 179.466 156.36 179.349 156.36 179.226V175.472C156.36 175.217 156.146 175.016 155.891 175.031L83.9989 179.419L50.6319 200.444H133.744Z" fill="#3E8DFF"/>
<path d="M133.66 198.353L133.067 195.946L154.662 178.829L133.66 198.353Z" fill="#4C6ACA"/>
<path d="M56.1343 198.856H133.12L154.772 178.726V176.692L84.5019 180.978L56.1343 198.856ZM134.369 202.034H45.13L83.4956 177.858L155.796 173.445C156.355 173.414 156.904 173.611 157.31 173.994C157.717 174.375 157.95 174.914 157.95 175.472V179.227C157.95 179.786 157.715 180.327 157.305 180.71L134.369 202.034Z" fill="#371A45"/>
<path d="M133.744 191.612L156.36 175.003H83.9989L50.6319 191.612H133.744Z" fill="#3E8DFF"/>
<path d="M127.91 189.515L142.623 178.709H95.5506L73.8454 189.515H127.91Z" fill="white"/>
<path d="M55.0588 190.571H133.403L153.184 176.045H84.2435L55.0588 190.571ZM134.085 192.653H46.2048L83.7538 173.963H155.013C155.656 173.963 156.222 174.372 156.421 174.983C156.622 175.593 156.408 176.258 155.891 176.64L134.085 192.653Z" fill="#371A45"/>
<path d="M131.602 201.426H37.0565C36.4447 201.426 35.8846 201.176 35.4792 200.759C35.2132 200.489 35.0145 200.139 34.9153 199.745L19.014 135.211C18.3268 132.426 20.4321 129.737 23.3001 129.737H111.565C114.474 129.737 117.02 131.632 117.882 134.377C117.926 134.508 117.965 134.643 117.997 134.778L133.743 198.689C134.089 200.08 133.032 201.426 131.602 201.426Z" fill="#3E8DFF"/>
<path d="M131.601 201.426H39.6859L39.555 200.896C40.5029 200.913 41.528 200.924 42.6222 200.924C58.8866 200.924 90.2959 198.468 106.596 180.881C118.856 167.653 119.112 146.965 117.899 134.555C117.913 134.557 117.925 134.558 117.937 134.56C117.925 134.52 117.914 134.48 117.903 134.441C117.939 134.552 117.971 134.664 117.997 134.777L133.743 198.689C133.787 198.869 133.808 199.048 133.809 199.222C133.811 200.405 132.847 201.426 131.601 201.426ZM37.043 201.426C37.0415 201.426 37.0402 201.426 37.0388 201.426C37.0402 201.426 37.0416 201.426 37.043 201.426ZM37.0299 201.426C37.0282 201.426 37.0262 201.426 37.0245 201.426C37.0263 201.426 37.0282 201.426 37.0299 201.426ZM37.0168 201.426C37.0147 201.426 37.0129 201.426 37.0109 201.426C37.0129 201.426 37.0149 201.426 37.0168 201.426ZM37.0041 201.426C37.0018 201.426 36.9995 201.426 36.9974 201.425C36.9996 201.426 37.0018 201.426 37.0041 201.426ZM36.9495 201.424C36.7448 201.414 36.5469 201.376 36.3592 201.314C36.5469 201.376 36.7451 201.414 36.9495 201.424ZM36.3448 201.309C36.3438 201.309 36.343 201.308 36.3422 201.308C36.3431 201.308 36.3438 201.309 36.3448 201.309Z" fill="#4C6ACA"/>
<path d="M36.9495 201.424H36.9494C36.9494 201.424 36.9494 201.424 36.9495 201.424ZM36.342 201.308C35.6462 201.069 35.098 200.491 34.915 199.746C35.0144 200.14 35.213 200.49 35.479 200.759C35.7194 201.007 36.0142 201.195 36.342 201.308Z" fill="#7D6A86"/>
<path d="M117.902 134.44C117.896 134.418 117.89 134.398 117.882 134.377C117.067 131.781 114.746 129.947 112.04 129.754C114.769 129.948 117.107 131.811 117.902 134.44ZM112.004 129.752C111.999 129.751 111.996 129.751 111.991 129.751C111.996 129.751 111.999 129.752 112.004 129.752ZM111.902 129.746C111.897 129.746 111.893 129.746 111.891 129.745C111.895 129.746 111.897 129.746 111.902 129.746ZM111.868 129.744C111.864 129.744 111.861 129.744 111.855 129.744C111.861 129.744 111.863 129.744 111.868 129.744ZM111.729 129.74C111.727 129.74 111.723 129.74 111.72 129.74C111.724 129.74 111.727 129.74 111.729 129.74Z" fill="#DEF4FF"/>
<path d="M39.555 200.895C37.9638 200.864 36.5886 200.813 35.4792 200.759C35.2132 200.489 35.0145 200.139 34.9153 199.745L31.3101 185.115L31.1777 184.577L19.014 135.211C18.9254 134.852 18.8832 134.494 18.8831 134.144C18.8822 131.777 20.8017 129.737 23.3001 129.737H111.565C111.571 129.737 111.576 129.737 111.583 129.737C111.584 129.737 111.585 129.737 111.587 129.737C111.592 129.737 111.595 129.737 111.6 129.737C111.603 129.737 111.605 129.737 111.608 129.737C111.612 129.737 111.614 129.737 111.618 129.737C111.619 129.737 111.623 129.737 111.626 129.737C111.629 129.737 111.631 129.737 111.635 129.737C111.637 129.737 111.641 129.737 111.642 129.737C111.646 129.737 111.648 129.737 111.652 129.737C111.655 129.737 111.659 129.738 111.661 129.738C111.664 129.738 111.666 129.738 111.669 129.738C111.671 129.738 111.675 129.738 111.677 129.738C111.681 129.738 111.684 129.738 111.686 129.738C111.69 129.738 111.693 129.738 111.695 129.738C111.698 129.738 111.701 129.738 111.703 129.738C111.706 129.738 111.709 129.738 111.713 129.738C111.714 129.74 111.718 129.74 111.72 129.74C111.723 129.74 111.727 129.74 111.729 129.74C111.732 129.74 111.736 129.74 111.737 129.74C111.741 129.74 111.743 129.74 111.747 129.74C111.749 129.74 111.752 129.74 111.754 129.74C111.758 129.74 111.761 129.74 111.765 129.74C111.767 129.74 111.768 129.74 111.772 129.74C111.775 129.74 111.778 129.74 111.781 129.74C111.783 129.74 111.786 129.74 111.789 129.74C111.791 129.741 111.795 129.741 111.797 129.741C111.801 129.741 111.802 129.741 111.806 129.741C111.809 129.741 111.813 129.741 111.815 129.741C111.818 129.741 111.82 129.742 111.823 129.742C111.826 129.742 111.83 129.742 111.833 129.742C111.835 129.742 111.838 129.742 111.839 129.742C111.843 129.742 111.847 129.744 111.849 129.744C111.852 129.744 111.854 129.744 111.855 129.744C111.86 129.744 111.864 129.744 111.868 129.744C111.869 129.745 111.872 129.745 111.873 129.745C111.877 129.745 111.881 129.745 111.884 129.745C111.886 129.745 111.888 129.745 111.891 129.745C111.893 129.746 111.897 129.746 111.902 129.746C111.903 129.746 111.905 129.746 111.907 129.746C111.911 129.746 111.915 129.746 111.919 129.746C111.921 129.746 111.922 129.746 111.924 129.746C111.927 129.746 111.932 129.747 111.936 129.747C111.938 129.747 111.939 129.747 111.94 129.747C111.945 129.747 111.949 129.747 111.953 129.749C111.955 129.749 111.956 129.749 111.956 129.749C111.961 129.749 111.967 129.749 111.97 129.75C111.972 129.75 111.973 129.75 111.974 129.75C111.979 129.75 111.983 129.75 111.987 129.751C111.988 129.751 111.989 129.751 111.991 129.751C111.996 129.751 111.999 129.751 112.004 129.752C112.006 129.752 112.006 129.752 112.007 129.752C112.012 129.752 112.017 129.752 112.022 129.752H112.023C112.028 129.752 112.033 129.754 112.04 129.754C114.746 129.947 117.067 131.781 117.882 134.377C117.887 134.436 117.894 134.495 117.9 134.555C117.635 134.523 117.368 134.504 117.096 134.504H25.9219C24.5355 134.504 23.5145 135.803 23.8484 137.15L39.555 200.895Z" fill="#81B5FF"/>
<path d="M39.6856 201.426H37.0561C37.0516 201.426 37.0472 201.426 37.0427 201.426C37.0414 201.426 37.0399 201.426 37.0384 201.426C37.0356 201.426 37.0325 201.426 37.0296 201.426C37.0278 201.426 37.0261 201.426 37.0242 201.426C37.0216 201.426 37.0192 201.426 37.0164 201.426C37.0146 201.426 37.0125 201.426 37.0106 201.426C37.0084 201.426 37.0061 201.426 37.0039 201.426C37.0015 201.426 36.9993 201.426 36.9971 201.425C36.9956 201.425 36.9942 201.425 36.9928 201.425C36.9826 201.425 36.9724 201.425 36.9621 201.425C36.9618 201.425 36.9612 201.425 36.9605 201.425C36.9568 201.425 36.9531 201.425 36.9493 201.425C36.9492 201.425 36.9492 201.425 36.9492 201.425C36.7449 201.414 36.5466 201.377 36.359 201.314H36.3589C36.3564 201.313 36.3542 201.312 36.3517 201.312C36.3494 201.312 36.3469 201.31 36.3444 201.309C36.3436 201.309 36.3428 201.308 36.3418 201.308C36.014 201.196 35.7192 201.007 35.479 200.759C36.5883 200.813 37.9634 200.865 39.5546 200.896L39.6856 201.426ZM117.937 134.561C117.924 134.559 117.912 134.557 117.898 134.556C117.892 134.496 117.886 134.437 117.881 134.378C117.889 134.399 117.895 134.42 117.902 134.441C117.913 134.48 117.924 134.521 117.937 134.561Z" fill="#8A9EDC"/>
<path d="M23.2996 131.327C22.4249 131.327 21.6138 131.723 21.0744 132.411C20.5347 133.099 20.3456 133.982 20.5544 134.83L36.4553 199.365C36.524 199.643 36.7709 199.836 37.0567 199.836H131.599C131.861 199.836 132.017 199.689 132.087 199.599C132.157 199.51 132.263 199.325 132.201 199.069L116.454 135.157C115.899 132.902 113.887 131.327 111.564 131.327H23.2996ZM131.599 203.014H37.0567C35.3047 203.014 33.789 201.827 33.3701 200.126L17.4691 135.591C17.0245 133.787 17.427 131.913 18.5727 130.45C19.7189 128.989 21.4419 128.149 23.2996 128.149H111.564C115.354 128.149 118.632 130.718 119.539 134.397L135.287 198.309C135.567 199.451 135.313 200.635 134.588 201.56C133.864 202.485 132.774 203.014 131.599 203.014Z" fill="#371A45"/>
<path d="M219.118 202.396H215.15L220.691 183.221L224.645 183.263L223.879 185.912L221.718 186.008C222.409 186.055 223.114 186.08 223.825 186.097L223.028 188.862C222.126 188.894 221.223 188.927 220.32 188.961C221.202 189.004 222.085 189.035 222.969 189.063L221.869 192.869C221.028 192.922 220.188 192.976 219.349 193.029C220.173 193.041 220.996 193.045 221.819 193.046L220.374 198.048C219.586 198.08 218.799 198.115 218.013 198.157C218.785 198.178 219.556 198.192 220.328 198.205L219.118 202.396Z" fill="#B9AFBE"/>
<path d="M218.66 203.985H214.691L215.15 202.396H219.119L218.66 203.985ZM224.645 183.263L220.69 183.221L221.149 181.635L225.103 181.677L224.645 183.263Z" fill="#371A45"/>
<path d="M220.329 198.205C219.557 198.192 218.785 198.178 218.014 198.157C218.8 198.115 219.587 198.08 220.374 198.048L220.329 198.205Z" fill="#371A45"/>
<path d="M221.819 193.046C220.998 193.045 220.173 193.04 219.348 193.029C220.19 192.976 221.029 192.922 221.87 192.869L221.819 193.046Z" fill="#371A45"/>
<path d="M222.969 189.063C222.086 189.035 221.202 189.004 220.321 188.961C221.224 188.927 222.126 188.893 223.028 188.862L222.969 189.063Z" fill="#371A45"/>
<path d="M223.826 186.097C223.116 186.079 222.41 186.055 221.719 186.008L223.879 185.912L223.826 186.097Z" fill="#371A45"/>
<path d="M167.282 180.653L141.592 203.841C141.592 203.841 164.487 202.662 175.115 202.692C183.78 202.717 212.763 204.936 212.763 204.936L219.503 181.605L167.282 180.653Z" fill="white"/>
<path d="M174.712 201.104C174.849 201.104 174.984 201.104 175.119 201.104C182.799 201.126 205.813 202.82 211.594 203.254L217.4 183.157L167.879 182.253L145.96 202.038C153.057 201.704 166.928 201.104 174.712 201.104ZM213.93 206.62L212.641 206.521C212.351 206.499 183.616 204.306 175.109 204.282C164.662 204.26 141.9 205.417 141.673 205.428L137.206 205.658L166.683 179.053L221.604 180.055L213.93 206.62Z" fill="#371A45"/>
<path d="M181.084 180.973C181.094 184.503 180.404 187.975 179.083 191.036L178.533 192.305C177.904 193.76 176.328 193.76 175.699 192.305L175.133 190.991C173.823 187.961 173.134 184.522 173.134 181.023V144.92C173.134 143.679 174.89 142.672 177.059 142.672C179.224 142.672 180.979 143.679 180.979 144.92C180.979 144.979 180.975 145.039 180.965 145.098L181.084 180.973Z" fill="#371A45"/>
<path d="M208.573 198.307C206.393 198.272 204.217 198.188 202.04 198.128L195.517 197.868C191.171 197.654 186.819 197.517 182.468 197.39C178.118 197.212 173.767 197.081 169.419 196.945C167.242 196.862 165.075 196.848 162.894 196.809C160.714 196.743 158.536 196.706 156.361 196.617C160.717 196.474 165.062 196.34 169.428 196.344C173.787 196.357 178.14 196.494 182.495 196.611L189.023 196.888C191.198 196.977 193.373 197.099 195.546 197.271L202.064 197.749C204.234 197.936 206.406 198.097 208.573 198.307Z" fill="#371A45"/>
<path d="M210.881 194.463C208.134 194.431 205.392 194.351 202.654 194.221C201.283 194.166 199.916 194.084 198.548 194.014C197.178 193.937 195.812 193.838 194.446 193.783L186.239 193.381C183.502 193.262 180.766 193.104 178.022 193.029C180.761 192.801 183.511 192.754 186.255 192.772C189 192.786 191.742 192.874 194.486 193.004C197.23 193.153 199.96 193.38 202.693 193.615C205.427 193.848 208.156 194.13 210.881 194.463Z" fill="#371A45"/>
<path d="M217.863 109.96C217.863 109.96 225.141 125.971 226.368 144.144C227.617 162.652 225.807 188.964 182.708 185.396C167.599 184.145 168.333 177.725 167.773 170.151C167.077 160.767 168.149 149.992 179.113 149.588C198.928 148.862 204.847 144.541 207.663 132.391L217.863 109.96Z" fill="white"/>
<path d="M205.286 183.893C206.26 183.618 207.192 183.316 208.081 182.986H208.083C207.194 183.315 206.26 183.618 205.286 183.893Z" fill="#B9AFBE"/>
<path d="M224.218 166.978C224.996 164.839 225.543 162.614 225.917 160.356C225.543 162.614 224.997 164.838 224.22 166.977C224.22 166.977 224.22 166.977 224.218 166.978Z" fill="#B9AFBE"/>
<path d="M221.535 172.486C222.64 170.745 223.522 168.898 224.219 166.977H224.22C223.523 168.896 222.643 170.745 221.539 172.485C221.539 172.485 221.537 172.485 221.535 172.486Z" fill="#8C7B94"/>
<path d="M220.067 174.562C220.065 174.562 220.063 174.562 220.063 174.562C220.594 173.89 221.083 173.197 221.534 172.486C221.536 172.485 221.538 172.485 221.538 172.485C221.085 173.197 220.596 173.889 220.067 174.562Z" fill="#371A45"/>
<path d="M214.215 179.92H214.212C214.456 179.758 214.693 179.596 214.927 179.429C214.929 179.429 214.929 179.429 214.931 179.429C214.696 179.596 214.457 179.758 214.215 179.92Z" fill="#371A45"/>
<path d="M214.927 179.43C216.958 177.99 218.654 176.351 220.063 174.561C220.065 174.561 220.065 174.561 220.067 174.561C218.657 176.35 216.961 177.99 214.93 179.43C214.929 179.43 214.927 179.43 214.927 179.43Z" fill="#371A45"/>
<path d="M168.058 174.197C168.057 174.17 168.053 174.144 168.051 174.117C168.054 174.144 168.057 174.17 168.059 174.197C168.058 174.197 168.059 174.197 168.058 174.197Z" fill="#B9AFBE"/>
<path d="M168.051 174.116C167.995 173.513 167.952 172.895 167.913 172.267C167.952 172.895 167.996 173.513 168.051 174.116Z" fill="#371A45"/>
<path d="M169.203 179.099H169.202C168.544 177.693 168.25 176.113 168.079 174.421C168.251 176.113 168.544 177.693 169.203 179.099Z" fill="#371A45"/>
<path d="M167.635 167.616C167.633 167.556 167.631 167.499 167.629 167.441C167.631 167.499 167.633 167.558 167.635 167.616Z" fill="#2E568D"/>
<path d="M208.081 182.986C210.39 182.133 212.424 181.1 214.21 179.921H214.213C212.425 181.1 210.393 182.133 208.081 182.986Z" fill="#371A45"/>
<path d="M190.271 185.722C187.904 185.722 185.386 185.616 182.709 185.396C177.117 184.932 173.694 183.761 171.574 182.085C170.474 181.216 169.725 180.212 169.204 179.099C168.545 177.692 168.253 176.112 168.08 174.42C168.072 174.346 168.065 174.272 168.058 174.198C168.056 174.171 168.053 174.144 168.051 174.117C167.995 173.513 167.951 172.896 167.912 172.267C167.868 171.574 167.825 170.867 167.773 170.15C167.712 169.318 167.662 168.477 167.635 167.633C167.635 167.63 167.635 167.627 167.635 167.625C167.635 167.622 167.635 167.619 167.635 167.616C167.634 167.558 167.63 167.499 167.629 167.441C167.61 166.757 167.601 166.071 167.61 165.39C167.61 165.385 167.61 165.38 167.61 165.376C167.61 165.371 167.61 165.366 167.61 165.361C167.659 161.748 168.158 158.221 169.552 155.419C169.572 156.537 169.627 157.652 169.712 158.749C170.272 166.32 169.537 172.743 184.643 173.991C187.323 174.213 189.844 174.319 192.213 174.319C213.928 174.319 223.01 165.38 226.531 154.47C226.438 156.301 226.265 158.139 225.981 159.959C225.959 160.091 225.939 160.224 225.917 160.355C225.542 162.613 224.995 164.838 224.219 166.978C223.521 168.898 222.64 170.745 221.535 172.486C221.084 173.197 220.595 173.89 220.063 174.561C218.654 176.351 216.958 177.99 214.926 179.43C214.693 179.596 214.454 179.759 214.211 179.92C212.424 181.1 210.39 182.132 208.081 182.986C207.191 183.316 206.261 183.618 205.287 183.892C205.283 183.893 205.278 183.895 205.275 183.896C201.107 185.068 196.15 185.722 190.271 185.722Z" fill="#B9AFBE"/>
<path d="M202.903 140.624C203.23 139.94 203.615 139.308 203.994 138.651C204.367 137.995 204.779 137.341 205.161 136.652C205.937 135.282 206.645 133.824 207.482 132.348C207.535 132.254 207.653 132.221 207.747 132.275C207.805 132.307 207.84 132.368 207.845 132.432C207.94 134.137 207.756 135.83 207.346 137.506C207.134 138.339 206.877 139.178 206.489 139.967C206.106 140.755 205.636 141.52 205.004 142.157C204.492 142.673 203.659 142.676 203.143 142.165C202.735 141.759 202.648 141.154 202.882 140.664L202.903 140.624Z" fill="#371A45"/>
<path d="M190.17 187.307C187.749 187.307 185.219 187.198 182.577 186.979C167.163 185.703 166.72 178.651 166.292 171.83C166.26 171.316 166.227 170.795 166.188 170.269C165.539 161.507 166.795 155.491 170.029 151.878C172.205 149.446 175.244 148.141 179.056 148C191.662 147.537 198.311 145.597 202.002 141.299C202.575 140.631 203.578 140.558 204.241 141.129C204.909 141.701 204.984 142.703 204.411 143.369C200.077 148.415 192.766 150.676 179.172 151.176C176.214 151.286 173.998 152.208 172.395 153.997C169.77 156.932 168.775 162.178 169.358 170.034C169.397 170.573 169.43 171.106 169.464 171.631C169.883 178.334 170.161 182.762 182.839 183.813C198.659 185.121 210.122 182.396 216.91 175.711C225.218 167.527 225.482 154.6 224.783 144.252C223.589 126.569 216.489 110.775 216.417 110.616C216.054 109.818 216.407 108.876 217.206 108.513C218.005 108.148 218.947 108.503 219.31 109.302C219.611 109.965 226.722 125.785 227.954 144.036C228.698 155.063 228.37 168.884 219.139 177.975C212.841 184.18 203.114 187.307 190.17 187.307Z" fill="#371A45"/>
<path d="M220.462 175.634C220.438 175.634 220.415 175.634 220.391 175.633C219.514 175.596 218.834 174.853 218.873 173.977C220.003 147.848 203.884 143.609 203.196 143.441C202.346 143.234 201.822 142.377 202.024 141.526C202.23 140.676 203.082 140.15 203.931 140.349C204.135 140.398 208.965 141.58 213.611 146.413C217.817 150.789 222.695 159.148 222.047 174.114C222.01 174.968 221.307 175.634 220.462 175.634Z" fill="#371A45"/>
<path d="M87.1301 154.74C85.6635 153.321 84.2326 151.939 82.7982 150.551C82.7947 150.516 82.7982 150.473 82.7982 150.433C84.2176 150.389 85.6416 150.35 87.0806 150.306C87.2819 151.831 87.2681 153.259 87.1301 154.74ZM86.7333 157.093C86.2674 158.91 85.5508 160.609 84.3913 162.101C83.4952 163.247 82.4289 164.219 81.2878 165.111C78.1902 167.533 74.76 169.397 71.2195 171.07C71.0469 171.15 70.9342 171.157 70.7893 171.009C70.4752 170.681 70.1313 170.369 69.8035 170.047C69.7816 170.03 69.7701 169.998 69.7345 169.935C69.8173 169.846 69.9082 169.755 69.9979 169.662C71.8694 167.717 73.7524 165.776 75.625 163.829C76.1668 163.272 76.0736 162.469 75.4375 162.094C74.9924 161.831 74.4725 161.913 74.0676 162.325C72.9403 163.488 71.8153 164.652 70.6926 165.819C69.8529 166.687 69.0224 167.55 68.1517 168.454C67.7468 168.063 67.3603 167.71 67.0026 167.33C66.9404 167.262 66.9623 167.063 67.0164 166.957C67.8917 165.104 68.7556 163.243 69.6804 161.411C70.5949 159.593 71.6853 157.877 72.9288 156.266C74.0917 154.744 75.3938 153.36 77.0732 152.398C78.151 151.781 79.2852 151.3 80.485 150.986C80.5931 150.954 80.7702 151.04 80.8645 151.131C82.3461 152.547 83.8139 153.967 85.2839 155.391C85.7245 155.814 86.1616 156.247 86.6136 156.662C86.7471 156.789 86.7804 156.909 86.7333 157.093ZM80.271 170.582C80.0616 171.933 79.4486 173.101 78.6376 174.181C77.63 175.511 76.3831 176.577 75.0131 177.586C74.6496 175.772 74.2884 173.997 73.9341 172.259C76.0518 171.044 78.1223 169.86 80.2031 168.667C80.3803 169.264 80.3734 169.925 80.271 170.582ZM65.6544 164.421C63.9846 164.143 62.2546 163.854 60.4767 163.557C61.9474 161.433 63.5547 159.529 65.9478 158.466C66.9807 158.007 68.2311 157.844 69.0109 158.031C67.9032 160.15 66.7886 162.268 65.6544 164.421ZM89.4042 152.044C89.3639 150.949 89.3421 149.84 88.9659 148.777C88.8544 148.673 88.7497 148.564 88.637 148.459C88.308 148.394 87.9836 148.294 87.6477 148.261C85.2759 148.015 82.9281 148.131 80.608 148.688C77.584 149.413 74.913 150.783 72.7885 153.095C72.0189 153.931 71.3391 154.845 70.6374 155.738C70.4499 155.98 70.2947 156.092 69.9657 155.998C69.1927 155.777 68.3898 155.748 67.5915 155.828C65.452 156.052 63.6599 157.024 62.0589 158.4C60.3246 159.897 59.0234 161.743 57.8451 163.687C57.3433 164.512 57.7045 165.292 58.6623 165.462C59.266 165.563 59.8687 165.661 60.4724 165.762C61.9183 166 63.3601 166.235 64.8017 166.474C64.8048 166.517 64.8122 166.539 64.8091 166.561C64.8017 166.589 64.7945 166.621 64.7799 166.65C64.3177 167.474 64.5593 168.136 65.261 168.685C65.337 168.746 65.406 168.822 65.4738 168.891C65.8534 169.259 66.2399 169.632 66.6414 170.015C66.2365 170.438 65.8316 170.806 65.4888 171.228C65.3151 171.442 65.1771 171.734 65.1414 172.009C65.077 172.455 65.3623 172.855 65.7741 173.022C66.2112 173.202 66.623 173.13 66.9554 172.805C67.3776 172.397 67.7755 171.962 68.2023 171.522C68.7475 172.053 69.264 172.555 69.7816 173.05C70.374 173.614 70.7318 173.672 71.4691 173.343C71.6025 173.278 71.7371 173.228 71.8958 173.163C71.9315 173.325 71.9649 173.455 71.989 173.578C72.387 175.551 72.7781 177.527 73.1853 179.494C73.3774 180.426 74.186 180.758 74.974 180.227C75.686 179.75 76.3946 179.252 77.0847 178.73C78.6744 177.527 80.0766 176.137 81.1026 174.413C82.3852 172.245 82.9304 169.957 82.1402 167.472C82.108 167.373 82.1655 167.189 82.2449 167.124C82.9419 166.51 83.6643 165.924 84.3625 165.307C85.9384 163.905 87.1198 162.214 87.9503 160.28C89.0821 157.653 89.5089 154.892 89.4042 152.044Z" fill="#371A45"/>
<path d="M83.2681 159.671C81.8336 161.134 79.5 161.183 78.0439 159.769C76.5799 158.359 76.5437 156.025 77.9601 154.548C79.3517 153.099 81.6886 153.066 83.1572 154.474C84.6087 155.877 84.6631 158.243 83.2681 159.671ZM86.6151 156.662C86.1633 156.246 85.7263 155.813 85.2847 155.389C83.815 153.966 82.3465 152.546 80.8655 151.128C80.7715 151.038 80.5937 150.952 80.4862 150.985C79.2871 151.298 78.1515 151.779 77.0747 152.397C75.3944 153.359 74.0935 154.741 72.9295 156.264C71.6863 157.876 70.5959 159.592 69.6822 161.409C68.756 163.241 67.8921 165.103 67.018 166.956C66.9636 167.062 66.9421 167.261 67.0033 167.329C67.3611 167.708 67.7472 168.062 68.1525 168.452C69.0243 167.548 69.8543 166.686 70.6933 165.817C71.8165 164.651 72.9408 163.487 74.0686 162.324C74.4728 161.912 74.9936 161.828 75.4386 162.092C76.0738 162.468 76.1678 163.271 75.6254 163.828C73.7538 165.775 71.8708 167.715 69.9992 169.66C69.9086 169.754 69.8181 169.845 69.7354 169.935C69.7716 169.996 69.783 170.028 69.8045 170.046C70.1328 170.368 70.4759 170.679 70.7907 171.007C70.9345 171.156 71.0477 171.149 71.2198 171.069C74.7615 169.395 78.1911 167.531 81.289 165.11C82.4303 164.217 83.4957 163.246 84.3925 162.099C85.5519 160.608 86.2686 158.909 86.7351 157.091C86.7815 156.907 86.7487 156.787 86.6151 156.662Z" fill="white"/>
<path d="M87.1307 154.739C85.6627 153.321 84.2311 151.938 82.7983 150.551C82.796 150.513 82.7983 150.472 82.7972 150.432C84.2186 150.39 85.6423 150.35 87.0819 150.305C87.2841 151.829 87.2682 153.257 87.1307 154.739Z" fill="#DB2C2C"/>
<path d="M69.014 158.033C67.9022 160.147 66.7893 162.267 65.6568 164.423C63.9837 164.142 62.2539 163.853 60.4773 163.559C61.9487 161.431 63.5554 159.526 65.9479 158.465C66.9812 158.005 68.2303 157.844 69.014 158.033Z" fill="#DB2C2C"/>
<path d="M78.6376 174.181C77.6289 175.512 76.385 176.579 75.013 177.584C74.6476 175.772 74.2875 173.997 73.9335 172.259C76.0519 171.045 78.1213 169.86 80.2053 168.665C80.3823 169.263 80.3729 169.923 80.274 170.583C80.0637 171.935 79.4496 173.101 78.6376 174.181Z" fill="#DB2C2C"/>
<path d="M81.9755 158.489C81.2491 159.233 80.019 159.252 79.2579 158.529C78.4699 157.785 78.4621 156.517 79.24 155.736C79.9653 154.999 81.22 154.992 81.961 155.721C82.7344 156.48 82.7378 157.71 81.9755 158.489ZM83.1575 154.474C81.689 153.066 79.3508 153.098 77.9607 154.547C76.5436 156.025 76.5806 158.359 78.0435 159.768C79.4997 161.182 81.8334 161.135 83.2683 159.671C84.663 158.244 84.6092 155.877 83.1575 154.474Z" fill="#371A45"/>
<path d="M81.9747 158.489C81.2482 159.233 80.0189 159.252 79.2559 158.529C78.4707 157.785 78.4618 156.518 79.2393 155.737C79.9669 154.999 81.2183 154.992 81.9592 155.722C82.7322 156.48 82.74 157.709 81.9747 158.489Z" fill="#22A7F0"/>
</svg>
