<svg width="60" height="60" viewBox="0 0 60 60" fill="none" xmlns="http://www.w3.org/2000/svg">
<g clip-path="url(#clip0_61_18)">
<path d="M30 0C13.4341 0 0 13.4341 0 30C0 46.5659 13.4341 60 30 60C46.5659 60 60 46.5659 60 30C60 13.4341 46.5659 0 30 0Z" fill="#334D5C"/>
<path d="M45.4534 12.4546H14.5466C10.8223 12.4546 7.81137 15.4655 7.81137 19.1898V50.1934C13.3011 56.2152 21.2092 59.9999 30 59.9999C38.7908 59.9999 46.6989 56.2152 52.1886 50.1934V19.1898C52.1886 15.4655 49.1657 12.4546 45.4534 12.4546Z" fill="#F2EEEB"/>
<path d="M29.9516 40.3145C20.8827 40.3145 8.47642 42.1887 3.85732 44.728C9.00846 53.8453 18.7908 60.0001 30 60.0001C41.2092 60.0001 50.9915 53.8453 56.1306 44.7401C51.4994 42.1887 39.0326 40.3145 29.9516 40.3145Z" fill="white"/>
<path d="M23.8452 49.8428C23.5792 49.8428 23.3736 50.0604 23.3736 50.3144V59.2624C23.688 59.3349 24.0024 59.3954 24.3289 59.4558V50.3144C24.3168 50.0483 24.1112 49.8428 23.8452 49.8428Z" fill="#D9DADB"/>
<path d="M26.312 49.8428C26.046 49.8428 25.8404 50.0604 25.8404 50.3144V59.7098C26.1548 59.7581 26.4692 59.7944 26.7957 59.8307V50.3144C26.7836 50.0483 26.5659 49.8428 26.312 49.8428Z" fill="#D9DADB"/>
<path d="M28.7666 49.8428C28.5006 49.8428 28.295 50.0604 28.295 50.3144V59.9516C28.6094 59.9637 28.9238 59.9879 29.2503 59.9879V50.3144C29.2503 50.0483 29.0326 49.8428 28.7666 49.8428Z" fill="#D9DADB"/>
<path d="M31.2334 49.8428C30.9674 49.8428 30.7618 50.0604 30.7618 50.3144V59.9879C31.0762 59.9758 31.4027 59.9637 31.7171 59.9516V50.3144C31.705 50.0483 31.4994 49.8428 31.2334 49.8428Z" fill="#D9DADB"/>
<path d="M33.688 49.8428C33.422 49.8428 33.2164 50.0604 33.2164 50.3144V59.8307C33.5308 59.7944 33.8573 59.7581 34.1717 59.7098V50.3144C34.1717 50.0483 33.9541 49.8428 33.688 49.8428Z" fill="#D9DADB"/>
<path d="M36.1548 49.8428C35.8888 49.8428 35.6832 50.0604 35.6832 50.3144V59.4558C35.9976 59.3954 36.3241 59.3228 36.6385 59.2624V50.3144C36.6264 50.0483 36.4208 49.8428 36.1548 49.8428Z" fill="#D9DADB"/>
<path d="M41.4027 56.5174C43.2058 56.5174 44.6675 55.0557 44.6675 53.2526C44.6675 51.4495 43.2058 49.9878 41.4027 49.9878C39.5996 49.9878 38.1378 51.4495 38.1378 53.2526C38.1378 55.0557 39.5996 56.5174 41.4027 56.5174Z" fill="#BFC0C1"/>
<path d="M41.4027 56.0098C42.9253 56.0098 44.1596 54.7754 44.1596 53.2528C44.1596 51.7302 42.9253 50.4958 41.4027 50.4958C39.88 50.4958 38.6457 51.7302 38.6457 53.2528C38.6457 54.7754 39.88 56.0098 41.4027 56.0098Z" fill="white"/>
<path d="M41.4027 51.7412C41.318 51.7412 41.2334 51.8138 41.2334 51.9105V53.2648C41.2334 53.3494 41.3059 53.4341 41.4027 53.4341C41.4994 53.4341 41.5719 53.3615 41.5719 53.2648V51.9105C41.5598 51.8138 41.4873 51.7412 41.4027 51.7412Z" fill="#AF1010"/>
<path d="M42.636 54.3409L41.4752 53.1801C41.4268 53.1317 41.3664 53.1317 41.318 53.1801C41.2696 53.2284 41.2696 53.2889 41.318 53.3373L42.4788 54.4981C42.503 54.5223 42.5272 54.5344 42.5514 54.5344C42.5756 54.5344 42.6118 54.5223 42.6239 54.4981C42.6844 54.4497 42.6844 54.3772 42.636 54.3409Z" fill="#3366A3"/>
<path d="M41.4389 53.2164C41.4148 53.1922 41.3785 53.1922 41.3664 53.2164L39.6614 54.74C39.6372 54.7641 39.6372 54.8004 39.6614 54.8125C39.6735 54.8246 39.6856 54.8367 39.6977 54.8367C39.7098 54.8367 39.7219 54.8367 39.734 54.8246L41.4389 53.301C41.4631 53.2768 41.4631 53.2406 41.4389 53.2164Z" fill="#30A018"/>
<path d="M41.4027 52.7932C41.1487 52.7932 40.9432 52.9988 40.9432 53.2527C40.9432 53.5066 41.1487 53.7122 41.4027 53.7122C41.6566 53.7122 41.8622 53.5066 41.8622 53.2527C41.8622 52.9988 41.6566 52.7932 41.4027 52.7932Z" fill="#9F9FA0"/>
<path d="M16.058 41.439C15.2842 41.5599 14.5224 41.6808 13.7848 41.8259C13.8815 42.104 13.9299 42.3942 13.9299 42.6965C13.9299 44.208 12.7086 45.4414 11.185 45.4414C9.78235 45.4414 8.62153 44.3773 8.46433 43.0109C7.69045 43.2286 6.95284 43.4462 6.29988 43.6881L7.07376 47.2552L16.8682 45.1391L16.058 41.439Z" fill="#C9B81F"/>
<path d="M13.1318 41.9468C11.6929 42.2249 10.3386 42.5151 9.09311 42.8416C9.16566 43.9298 10.0726 44.7884 11.185 44.7884C12.3458 44.7884 13.2769 43.8452 13.2769 42.6965C13.2769 42.4305 13.2164 42.1765 13.1318 41.9468Z" fill="#3366A3"/>
<path d="M13.7727 41.8259C13.555 41.8622 13.3374 41.9106 13.1318 41.9468C13.2285 42.1766 13.2769 42.4305 13.2769 42.6965C13.2769 43.8574 12.3337 44.7884 11.185 44.7884C10.0725 44.7884 9.16565 43.9299 9.0931 42.8416C8.87545 42.9021 8.66989 42.9505 8.46432 43.0109C8.62152 44.3773 9.78234 45.4414 11.185 45.4414C12.6965 45.4414 13.9299 44.2201 13.9299 42.6965C13.9178 42.3942 13.8694 42.0919 13.7727 41.8259Z" fill="white"/>
<path d="M43.942 41.4509L43.1439 45.139L52.9383 47.255L53.7122 43.6879C51.1608 42.7931 47.7025 42.0313 43.942 41.4509Z" fill="#3366A3"/>
<path d="M43.942 41.4509L43.5671 43.2163L53.3615 45.3324L53.7122 43.7C51.1608 42.7931 47.7025 42.0313 43.942 41.4509Z" fill="#AF1010"/>
<path d="M49.5199 45.6242L49.9692 43.4944L47.3306 42.9378L46.8813 45.0677L49.5199 45.6242Z" fill="white"/>
<path d="M48.7666 44.0751L48.6094 43.4705L48.2225 43.9662L47.5937 43.9299L47.9565 44.4499L47.7267 45.0424L48.3313 44.861L48.815 45.2601L48.8392 44.6313L49.3591 44.2806L48.7666 44.0751Z" fill="#C9B81F"/>
<path d="M30 36.2998C23.3011 36.2998 17.8597 37.3881 17.8597 38.7303C17.8597 38.8875 17.8597 41.3542 17.8597 41.5114C17.8597 42.8536 23.289 43.9419 30 43.9419C36.6989 43.9419 42.1282 42.8536 42.1282 41.5114C42.1282 41.3542 42.1282 38.8875 42.1282 38.7303C42.1282 37.3881 36.6989 36.2998 30 36.2998Z" fill="#DBDBDB"/>
<path d="M30 36.2998C23.3011 36.2998 17.8597 37.3881 17.8597 38.7303C17.8597 40.0725 23.289 41.1607 30 41.1607C36.6989 41.1607 42.1282 40.0725 42.1282 38.7303C42.1282 37.3881 36.6989 36.2998 30 36.2998Z" fill="white"/>
<path d="M30 36.7351C24.3289 36.7351 19.7219 37.6299 19.7219 38.7303C19.7219 39.8306 24.3289 40.7254 30 40.7254C35.6711 40.7254 40.2781 39.8306 40.2781 38.7303C40.2781 37.6299 35.6711 36.7351 30 36.7351Z" fill="#2A3F49"/>
<path d="M25.2962 34.1113C25.6469 35.1754 25.8404 36.1065 25.925 36.9046C27.1705 36.7957 28.549 36.7353 30 36.7353C31.451 36.7353 32.8295 36.7957 34.075 36.9046C34.1596 36.1065 34.3531 35.1875 34.7037 34.1113H25.2962Z" fill="#E2A379"/>
<path d="M34.075 36.9046C32.8295 36.7958 31.451 36.7354 30 36.7354C28.549 36.7354 27.1705 36.7958 25.925 36.9046C26.1669 39.1416 25.5623 40.3146 25.4414 40.5201C26.8198 40.6531 28.3676 40.7257 30 40.7257C31.6445 40.7257 33.1923 40.6531 34.5587 40.5201C34.4377 40.3146 33.8331 39.1416 34.075 36.9046Z" fill="#E2A379"/>
<path d="M30 7.44873C24.1113 7.44873 19.3229 10.0122 19.3229 21.1851C19.3229 24.9699 20.0726 27.9324 21.1971 30.2178C23.6639 35.248 27.9323 37.0013 30 37.0013C32.0677 37.0013 36.3362 35.248 38.8029 30.2178C39.9275 27.9324 40.6772 24.9699 40.6772 21.1851C40.6772 10.0122 35.8888 7.44873 30 7.44873Z" fill="#F4B382"/>
<path d="M31.3785 30.8101C30.9794 30.7497 30 31.1366 30 31.1366C30 31.1366 28.9964 30.7618 28.5973 30.8101C27.9565 30.9069 27.0133 31.4026 27.0133 31.584C27.0133 31.8742 28.3434 32.6481 30 32.6481C31.6566 32.6481 32.9867 31.8621 32.9867 31.584C32.9867 31.584 32.0314 30.8948 31.3785 30.8101Z" fill="#E5A173"/>
<path d="M30 31.7291C28.2346 31.7291 27.0133 31.584 27.0133 31.584C27.0133 31.8742 28.3434 32.9746 30 32.9746C31.6566 32.9746 32.9867 31.8742 32.9867 31.584C32.9867 31.584 31.7654 31.7291 30 31.7291Z" fill="#D89364"/>
<path d="M19.5163 21.5237C18.5006 21.693 17.7146 22.1404 18.295 25.5019C18.8755 28.8635 19.5889 29.0207 20.6046 28.8514L19.5163 21.5237Z" fill="#F4B382"/>
<path d="M40.4958 21.5237L39.4075 28.8514C40.4232 29.0207 41.1366 28.8635 41.717 25.5019C42.2854 22.1404 41.5115 21.7051 40.4958 21.5237Z" fill="#F4B382"/>
<path d="M30 7.14624C22.9867 7.14624 19.3229 10.012 19.3229 21.1849L24.0145 12.9141H35.5865L40.6772 21.1849C40.6772 10.012 37.0133 7.14624 30 7.14624Z" fill="#3A1D12"/>
<path d="M21.7775 16.7593L20.0121 17.0253C19.5042 18.3433 19.3349 19.9757 19.3349 21.5598C19.3349 21.5598 20.399 21.33 20.399 21.8741L20.7376 25.2115L21.2092 24.9818C21.1608 22.2006 21.7775 16.7593 21.7775 16.7593Z" fill="#3A1D12"/>
<path d="M40 17.0254L38.2346 16.9771C38.2346 16.9771 38.8513 22.2008 38.8271 24.9819L39.2987 25.2116L39.6252 21.8743C39.6252 21.3301 40.6892 21.5599 40.6892 21.5599C40.6892 19.9638 40.52 18.3434 40 17.0254Z" fill="#3A1D12"/>
</g>
<defs>
<clipPath id="clip0_61_18">
<rect width="60" height="60" fill="white"/>
</clipPath>
</defs>
</svg>
