<svg width="430" height="80" viewBox="0 0 430 80" fill="none" xmlns="http://www.w3.org/2000/svg">
<path d="M9.34375 58.625C11.6354 59.7917 13.8958 60.375 16.125 60.375C17.4792 60.375 18.7292 60.1771 19.875 59.7812C21.0417 59.3646 22.0417 58.75 22.875 57.9375C23.7292 57.125 24.3958 56.125 24.875 54.9375C25.3542 53.7292 25.5938 52.3333 25.5938 50.75C25.5938 49.5625 25.4688 48.5312 25.2188 47.6562C24.9688 46.7604 24.4896 45.8958 23.7812 45.0625C23.0729 44.2083 22.0833 43.3021 20.8125 42.3438C19.5417 41.3854 17.875 40.2396 15.8125 38.9062C12.5208 36.7604 10.1146 34.6979 8.59375 32.7188C7.09375 30.7396 6.34375 28.7292 6.34375 26.6875C6.34375 24.6875 6.76042 22.9375 7.59375 21.4375C8.42708 19.9167 9.52083 18.6562 10.875 17.6562C12.25 16.6354 13.7917 15.875 15.5 15.375C17.2292 14.8542 18.9792 14.5938 20.75 14.5938C23.9375 14.5938 26.7917 15.3229 29.3125 16.7812C28.7292 20.0104 27.7083 23.1458 26.25 26.1875L25.4062 25.75C25.5312 24.9583 25.625 24.2083 25.6875 23.5C25.7708 22.7708 25.8125 22.0938 25.8125 21.4688C25.8125 20.8229 25.7812 20.2396 25.7188 19.7188C25.6562 19.1771 25.5729 18.6667 25.4688 18.1875C23.8021 17.2083 22.0104 16.7188 20.0938 16.7188C18.8854 16.7188 17.7292 16.9062 16.625 17.2812C15.5417 17.6354 14.5833 18.1667 13.75 18.875C12.9167 19.5833 12.25 20.4583 11.75 21.5C11.25 22.5208 11 23.6979 11 25.0312C11 25.9688 11.1667 26.8438 11.5 27.6562C11.8333 28.4688 12.3438 29.2812 13.0312 30.0938C13.7396 30.9062 14.6146 31.75 15.6562 32.625C16.7188 33.5 17.9688 34.4688 19.4062 35.5312C20.2604 36.1562 21.0625 36.7292 21.8125 37.25C22.5625 37.75 23.2604 38.2292 23.9062 38.6875C24.5521 39.1458 25.1458 39.5938 25.6875 40.0312C26.25 40.4688 26.7708 40.9375 27.25 41.4375C29.5625 43.875 30.7188 46.7083 30.7188 49.9375C30.7188 52.1042 30.3333 53.9688 29.5625 55.5312C28.8125 57.0938 27.7812 58.375 26.4688 59.375C25.1562 60.375 23.625 61.1042 21.875 61.5625C20.125 62.0417 18.2708 62.2812 16.3125 62.2812C12.7917 62.2812 9.1875 61.5729 5.5 60.1562C6.14583 56.8021 7.16667 53.6667 8.5625 50.75L9.40625 51.2188C9.15625 52.3854 9.03125 53.8125 9.03125 55.5C9.03125 57.1875 9.13542 58.2292 9.34375 58.625ZM47.8438 73.1562C47.8438 74.8229 48.2292 76.0417 49 76.8125C49.7708 77.6042 51.1354 78.1771 53.0938 78.5312L52.8438 79.3125C50.5312 78.9583 48.6042 78.7812 47.0625 78.7812C45.875 78.7812 44.4896 78.9583 42.9062 79.3125L42.7188 78.9688C43.1354 78.3646 43.3438 77.2604 43.3438 75.6562V37.8438C43.3438 34.8854 42.9896 32.9062 42.2812 31.9062C41.5938 30.8854 40.1146 30.4479 37.8438 30.5938L37.7188 30.0312C41.1562 29.0104 44.3125 28.5 47.1875 28.5C47.625 29.5833 47.8438 30.7708 47.8438 32.0625V33.875C49.6771 32 51.5208 30.6354 53.375 29.7812C55.2292 28.9271 57.2708 28.5 59.5 28.5C61.375 28.5 63.0938 28.9375 64.6562 29.8125C66.2396 30.6667 67.5417 31.8021 68.5625 33.2188C69.5833 34.6354 70.375 36.2396 70.9375 38.0312C71.5 39.8021 71.7812 41.6354 71.7812 43.5312C71.7812 49.1562 70.2917 53.6875 67.3125 57.125C64.3542 60.5625 60.1042 62.2812 54.5625 62.2812C52.0417 62.2812 49.8021 62.0625 47.8438 61.625V73.1562ZM47.8438 36.375V58.0625C48.8229 58.6042 50.1458 59.0521 51.8125 59.4062C53.4792 59.7396 55.1458 59.9062 56.8125 59.9062C58.4375 59.9062 59.8438 59.6667 61.0312 59.1875C62.2396 58.6875 63.2083 58.0312 63.9375 57.2188C64.6667 56.3854 65.25 55.3229 65.6875 54.0312C66.1458 52.7396 66.4479 51.4062 66.5938 50.0312C66.7604 48.6354 66.8438 47.0208 66.8438 45.1875C66.8438 40.4375 66.0417 36.8438 64.4375 34.4062C62.8333 31.9479 60.7083 30.7188 58.0625 30.7188C56.4167 30.7188 54.6979 31.2083 52.9062 32.1875C51.1354 33.1458 49.4479 34.5417 47.8438 36.375ZM101.875 57.4688C101.875 57.8229 101.948 58.1562 102.094 58.4688C102.26 58.7604 102.448 59.0104 102.656 59.2188C102.885 59.4062 103.208 59.5938 103.625 59.7812C104.042 59.9688 104.406 60.1146 104.719 60.2188C105.031 60.3229 105.469 60.4583 106.031 60.625L105.781 61.375C104.448 61.125 103.125 61 101.812 61C100.167 61 98.5417 61.1667 96.9375 61.5L96.75 61.1875C97.1875 60.5833 97.4062 59.4792 97.4062 57.875V55.8125C96.3646 57.75 94.7396 59.3125 92.5312 60.5C90.3438 61.6875 88.125 62.2812 85.875 62.2812C83.4792 62.2812 81.5417 61.6667 80.0625 60.4375C78.6042 59.1875 77.875 57.3438 77.875 54.9062C77.875 53.3229 78.1979 51.9167 78.8438 50.6875C79.5104 49.4375 80.3854 48.3854 81.4688 47.5312C82.5729 46.6562 83.9792 45.8854 85.6875 45.2188C87.4167 44.5521 89.1875 44.0104 91 43.5938C92.8333 43.1771 94.9688 42.7917 97.4062 42.4375V39.5625C97.4062 33.8333 95.1458 30.9688 90.625 30.9688C89.1667 30.9688 87.375 31.3333 85.25 32.0625C83.1458 32.7708 81.375 33.7083 79.9375 34.875L78.6562 33.4062C80.4688 31.9688 82.6146 30.7812 85.0938 29.8438C87.5938 28.9062 89.9271 28.4375 92.0938 28.4375C93.0521 28.4375 93.9583 28.5312 94.8125 28.7188C95.6875 28.8854 96.5625 29.2083 97.4375 29.6875C98.3333 30.1458 99.0938 30.7396 99.7188 31.4688C100.365 32.1771 100.885 33.1354 101.281 34.3438C101.677 35.5312 101.875 36.8854 101.875 38.4062V57.4688ZM87.3438 59.9062C89.1562 59.9062 91.0521 59.3125 93.0312 58.125C95.0104 56.9167 96.4688 55.4167 97.4062 53.625V44.0938C92.0729 44.8646 88.2604 46.0521 85.9688 47.6562C83.6979 49.2396 82.5625 51.5521 82.5625 54.5938C82.5625 56.4479 82.9583 57.8021 83.75 58.6562C84.5417 59.4896 85.7396 59.9062 87.3438 59.9062ZM126.906 62.2812C124.719 62.2812 122.688 61.8438 120.812 60.9688C118.938 60.0938 117.375 58.9271 116.125 57.4688C114.875 55.9896 113.896 54.3125 113.188 52.4375C112.479 50.5417 112.125 48.5729 112.125 46.5312C112.125 43.6146 112.552 41 113.406 38.6875C114.26 36.375 115.448 34.4896 116.969 33.0312C118.49 31.5521 120.26 30.4271 122.281 29.6562C124.323 28.8854 126.552 28.5 128.969 28.5C131.635 28.5 134.385 28.9896 137.219 29.9688L135.188 37.625L134.031 37.3125C134.26 35.125 134.198 33.25 133.844 31.6875C131.51 31 129.396 30.6562 127.5 30.6562C123.833 30.6562 121.167 31.8542 119.5 34.25C117.833 36.625 117 40.1458 117 44.8125C117 49.1667 118.01 52.7917 120.031 55.6875C122.073 58.5833 124.646 60.0312 127.75 60.0312C131.604 60.0312 134.74 58.8229 137.156 56.4062L138.438 57.75C136.875 59.375 135.167 60.5312 133.312 61.2188C131.479 61.9271 129.344 62.2812 126.906 62.2812ZM143.062 45.7812C143.062 43.5729 143.427 41.4375 144.156 39.375C144.885 37.2917 145.927 35.4479 147.281 33.8438C148.635 32.2188 150.271 30.9271 152.188 29.9688C154.125 28.9896 156.292 28.5 158.688 28.5C160.188 28.5 161.604 28.7604 162.938 29.2812C164.271 29.7812 165.427 30.5729 166.406 31.6562C167.406 32.7188 168.188 34.0938 168.75 35.7812C169.333 37.4479 169.625 39.4375 169.625 41.75L168.406 42.875H148C147.958 43.2292 147.938 43.5729 147.938 43.9062C147.938 44.2396 147.938 44.5729 147.938 44.9062C147.938 47.1771 148.198 49.2396 148.719 51.0938C149.26 52.9479 149.979 54.5417 150.875 55.875C151.792 57.1875 152.865 58.2083 154.094 58.9375C155.323 59.6667 156.625 60.0312 158 60.0312C158.875 60.0312 159.76 59.9688 160.656 59.8438C161.573 59.6979 162.458 59.4792 163.312 59.1875C164.188 58.8958 165.031 58.5208 165.844 58.0625C166.656 57.6042 167.406 57.0521 168.094 56.4062L169.375 57.75C167.729 59.375 165.938 60.5312 164 61.2188C162.062 61.9271 159.823 62.2812 157.281 62.2812C155.281 62.2812 153.406 61.8958 151.656 61.125C149.927 60.3542 148.427 59.25 147.156 57.8125C145.885 56.375 144.885 54.6458 144.156 52.625C143.427 50.5833 143.062 48.3021 143.062 45.7812ZM158 30.6562C154.771 30.6562 152.406 31.5 150.906 33.1875C149.406 34.8542 148.5 37.2604 148.188 40.4062H165.594C165.427 36.9896 164.656 34.5104 163.281 32.9688C161.927 31.4271 160.167 30.6562 158 30.6562ZM190.844 15.875C193.885 15.6042 196.833 15.4167 199.688 15.3125C202.542 15.1875 205.365 15.125 208.156 15.125C210.948 15.125 213.979 15.1979 217.25 15.3438C220.521 15.4688 224.094 15.6667 227.969 15.9375L228.344 16.5938L225.406 24.1875L224.375 23.875C224.521 23.1458 224.625 22.4688 224.688 21.8438C224.771 21.1979 224.812 20.5938 224.812 20.0312C224.812 19.2604 224.75 18.5625 224.625 17.9375C221.979 17.7708 219.594 17.6458 217.469 17.5625C215.365 17.4792 213.49 17.4271 211.844 17.4062V55.375C211.844 56.2292 211.917 56.9583 212.062 57.5625C212.229 58.1667 212.5 58.6771 212.875 59.0938C213.25 59.5104 213.75 59.8542 214.375 60.125C215 60.375 215.792 60.5833 216.75 60.75L216.5 61.5C215.25 61.3333 214.167 61.2083 213.25 61.125C212.333 61.0417 211.562 61 210.938 61C210.354 61 209.698 61.0417 208.969 61.125C208.26 61.2083 207.469 61.3333 206.594 61.5L206.406 61.1875C206.823 60.5833 207.031 59.4792 207.031 57.875V17.4062C205.448 17.4271 203.594 17.4792 201.469 17.5625C199.344 17.6458 196.917 17.7708 194.188 17.9375C194.062 18.625 194 19.3542 194 20.125C194 21.2292 194.146 22.4792 194.438 23.875L193.406 24.1875L190.469 16.5938L190.844 15.875ZM256.188 57.4688C256.188 57.8229 256.26 58.1562 256.406 58.4688C256.573 58.7604 256.76 59.0104 256.969 59.2188C257.198 59.4062 257.521 59.5938 257.938 59.7812C258.354 59.9688 258.719 60.1146 259.031 60.2188C259.344 60.3229 259.781 60.4583 260.344 60.625L260.094 61.375C258.76 61.125 257.438 61 256.125 61C254.479 61 252.854 61.1667 251.25 61.5L251.062 61.1875C251.5 60.5833 251.719 59.4792 251.719 57.875V55.8125C250.677 57.75 249.052 59.3125 246.844 60.5C244.656 61.6875 242.438 62.2812 240.188 62.2812C237.792 62.2812 235.854 61.6667 234.375 60.4375C232.917 59.1875 232.188 57.3438 232.188 54.9062C232.188 53.3229 232.51 51.9167 233.156 50.6875C233.823 49.4375 234.698 48.3854 235.781 47.5312C236.885 46.6562 238.292 45.8854 240 45.2188C241.729 44.5521 243.5 44.0104 245.312 43.5938C247.146 43.1771 249.281 42.7917 251.719 42.4375V39.5625C251.719 33.8333 249.458 30.9688 244.938 30.9688C243.479 30.9688 241.688 31.3333 239.562 32.0625C237.458 32.7708 235.688 33.7083 234.25 34.875L232.969 33.4062C234.781 31.9688 236.927 30.7812 239.406 29.8438C241.906 28.9062 244.24 28.4375 246.406 28.4375C247.365 28.4375 248.271 28.5312 249.125 28.7188C250 28.8854 250.875 29.2083 251.75 29.6875C252.646 30.1458 253.406 30.7396 254.031 31.4688C254.677 32.1771 255.198 33.1354 255.594 34.3438C255.99 35.5312 256.188 36.8854 256.188 38.4062V57.4688ZM241.656 59.9062C243.469 59.9062 245.365 59.3125 247.344 58.125C249.323 56.9167 250.781 55.4167 251.719 53.625V44.0938C246.385 44.8646 242.573 46.0521 240.281 47.6562C238.01 49.2396 236.875 51.5521 236.875 54.5938C236.875 56.4479 237.271 57.8021 238.062 58.6562C238.854 59.4896 240.052 59.9062 241.656 59.9062ZM274.969 55.375C274.969 57.0208 275.354 58.2396 276.125 59.0312C276.896 59.8229 278.26 60.3958 280.219 60.75L279.969 61.5C277.573 61.1667 275.719 61 274.406 61C273.115 61 271.656 61.1667 270.031 61.5L269.844 61.1875C270.26 60.5833 270.469 59.4792 270.469 57.875V20.4375C270.469 17.4792 270.115 15.5 269.406 14.5C268.719 13.4792 267.24 13.0417 264.969 13.1875L264.844 12.625C268.281 11.6042 271.438 11.0938 274.312 11.0938C274.75 12.1771 274.969 13.3646 274.969 14.6562V55.375ZM289.656 20.4375C289.656 17.4792 289.302 15.5 288.594 14.5C287.906 13.4792 286.427 13.0417 284.156 13.1875L284.031 12.625C287.469 11.6042 290.625 11.0938 293.5 11.0938C293.938 12.1771 294.156 13.3646 294.156 14.6562V55.375C294.156 57.0208 294.542 58.2396 295.312 59.0312C296.083 59.8229 297.448 60.3958 299.406 60.75L299.156 61.5C296.76 61.1667 294.833 61 293.375 61C292.229 61 290.844 61.1667 289.219 61.5L289.031 61.1875C289.448 60.5833 289.656 59.4792 289.656 57.875V20.4375ZM308.219 59.5312L296.656 44.3125V43.5938L308.219 31.9375C308.802 31.2917 308.583 30.8021 307.562 30.4688C306.646 30.1562 305.333 30.0729 303.625 30.2188L303.438 29.4375C306.104 28.8958 309.198 28.5833 312.719 28.5L313.219 29.4375L300.219 42.4375C308.302 52.5833 312.812 58 313.75 58.6875C314.688 59.3542 315.854 59.8438 317.25 60.1562L317.188 61.125C313.771 60.875 311.188 61 309.438 61.5L309 61.25C309.042 60.7917 308.781 60.2188 308.219 59.5312Z" fill="#E1B12B"/>
<path d="M398.119 75.5997H381.881C381.799 75.5998 381.718 75.5836 381.642 75.5522C381.566 75.5207 381.497 75.4747 381.44 75.4166L378.941 72.9185C378.883 72.8605 378.837 72.7917 378.806 72.7159C378.774 72.6402 378.758 72.5589 378.758 72.4769V63.7332C378.758 63.6511 378.774 63.5699 378.806 63.4941C378.837 63.4183 378.883 63.3494 378.941 63.2914C378.999 63.2334 379.068 63.1874 379.144 63.1561C379.22 63.1247 379.301 63.1086 379.383 63.1086H400.617C400.783 63.1087 400.941 63.1746 401.059 63.2917C401.176 63.4088 401.241 63.5676 401.242 63.7332V72.4769C401.242 72.5589 401.225 72.6401 401.194 72.7159C401.163 72.7917 401.117 72.8605 401.059 72.9185L398.56 75.4166C398.502 75.4746 398.434 75.5207 398.358 75.5521C398.282 75.5835 398.201 75.5997 398.119 75.5997ZM382.14 74.3505H397.86L399.992 72.2183V64.3577H380.007V72.2183L382.14 74.3505Z" fill="#E1B12B"/>
<path d="M378.134 68.1049C377.974 68.1049 377.82 68.0436 377.704 67.9335C377.588 67.8234 377.519 67.673 377.51 67.5133C377.502 67.348 377.559 67.1861 377.67 67.063C377.781 66.94 377.936 66.8659 378.101 66.8571L401.832 65.608C402.183 65.558 402.471 65.8544 402.488 66.1985C402.508 66.5424 402.242 66.8363 401.898 66.8546L378.167 68.1036C378.156 68.1049 378.145 68.1049 378.134 68.1049ZM378.134 71.8522C377.972 71.8507 377.817 71.7864 377.702 71.673C377.587 71.5596 377.52 71.4059 377.515 71.2442C377.511 71.0826 377.57 70.9255 377.679 70.8062C377.788 70.6869 377.939 70.6145 378.101 70.6044L401.832 69.3552C402.183 69.315 402.471 69.6018 402.488 69.9457C402.508 70.2896 402.242 70.5836 401.898 70.6019L378.167 71.851C378.156 71.8522 378.145 71.8522 378.134 71.8522ZM400.617 64.3577H379.383C379.301 64.3577 379.22 64.3416 379.144 64.3102C379.068 64.2789 378.999 64.2329 378.941 64.1749C378.883 64.1169 378.837 64.048 378.806 63.9722C378.774 63.8964 378.758 63.8152 378.758 63.7332V59.8614C372.495 55.9482 368.765 49.2502 368.765 41.8738C368.765 30.1647 378.291 20.6389 390 20.6389C401.708 20.6389 411.234 30.1646 411.234 41.8738C411.234 49.2502 407.504 55.9482 401.242 59.8614V63.7332C401.241 63.8988 401.176 64.0575 401.058 64.1746C400.941 64.2917 400.783 64.3576 400.617 64.3577ZM380.007 63.1086H399.992V59.5125C399.992 59.2943 400.107 59.0905 400.295 58.9769C406.362 55.3199 409.985 48.9255 409.985 41.8736C409.985 30.8538 401.02 21.888 390 21.888C378.98 21.888 370.015 30.8538 370.015 41.8736C370.015 48.9255 373.638 55.3199 379.705 58.9769C379.797 59.0327 379.874 59.1112 379.927 59.2051C379.98 59.2989 380.008 59.4048 380.008 59.5125V63.1086H380.007ZM390 78.0978C385.297 78.0978 383.879 75.3702 383.821 75.2544C383.747 75.1062 383.735 74.9347 383.787 74.7776C383.839 74.6205 383.952 74.4906 384.1 74.4165C384.247 74.3424 384.418 74.3298 384.574 74.3812C384.731 74.4327 384.861 74.544 384.936 74.691C384.984 74.7849 386.119 76.8489 390 76.8489C393.886 76.8489 395.018 74.7788 395.065 74.691C395.223 74.3872 395.599 74.2664 395.904 74.4225C396.209 74.5786 396.333 74.9482 396.18 75.2544C396.121 75.3702 394.703 78.0978 390 78.0978ZM363.144 42.4982H350.653C350.571 42.4982 350.49 42.4821 350.414 42.4507C350.339 42.4194 350.27 42.3734 350.212 42.3154C350.154 42.2574 350.108 42.1885 350.076 42.1127C350.045 42.0369 350.029 41.9557 350.029 41.8736C350.029 41.7916 350.045 41.7104 350.076 41.6346C350.108 41.5588 350.154 41.4899 350.212 41.4319C350.27 41.3739 350.339 41.3279 350.414 41.2965C350.49 41.2652 350.571 41.249 350.653 41.2491H363.144C363.226 41.249 363.308 41.2651 363.383 41.2965C363.459 41.3279 363.528 41.3739 363.586 41.4319C363.644 41.4899 363.69 41.5588 363.722 41.6346C363.753 41.7104 363.769 41.7916 363.769 41.8736C363.769 41.9557 363.753 42.0369 363.722 42.1127C363.69 42.1885 363.644 42.2574 363.586 42.3154C363.528 42.3734 363.459 42.4194 363.383 42.4508C363.308 42.4821 363.226 42.4982 363.144 42.4982ZM429.347 42.4982H416.855C416.773 42.4983 416.692 42.4823 416.616 42.4509C416.54 42.4196 416.472 42.3736 416.414 42.3156C416.355 42.2575 416.31 42.1886 416.278 42.1128C416.247 42.037 416.231 41.9557 416.231 41.8736C416.231 41.7916 416.247 41.7103 416.278 41.6345C416.31 41.5586 416.355 41.4897 416.414 41.4317C416.472 41.3737 416.54 41.3277 416.616 41.2963C416.692 41.265 416.773 41.249 416.855 41.2491H429.347C429.512 41.2492 429.671 41.3151 429.788 41.4322C429.905 41.5493 429.971 41.708 429.971 41.8736C429.971 42.0392 429.905 42.198 429.788 42.3151C429.671 42.4323 429.512 42.4981 429.347 42.4982ZM355.923 62.1716C355.813 62.1717 355.706 62.1428 355.611 62.088C355.516 62.0332 355.437 61.9544 355.383 61.8594C355.341 61.7885 355.315 61.7101 355.304 61.6289C355.293 61.5476 355.298 61.465 355.32 61.3857C355.341 61.3065 355.377 61.2323 355.427 61.1672C355.477 61.1022 355.54 61.0477 355.611 61.0068L366.431 54.7611C366.728 54.5855 367.111 54.6903 367.283 54.9893C367.324 55.0602 367.351 55.1385 367.362 55.2198C367.373 55.3011 367.367 55.3837 367.346 55.463C367.325 55.5422 367.288 55.6164 367.238 55.6815C367.189 55.7465 367.126 55.801 367.055 55.8419L356.235 62.0874C356.141 62.1427 356.033 62.1717 355.923 62.1716ZM413.259 29.0704C413.15 29.0704 413.042 29.0416 412.947 28.9867C412.852 28.9319 412.773 28.853 412.718 28.758C412.676 28.687 412.65 28.6086 412.639 28.5272C412.628 28.4459 412.634 28.3632 412.655 28.284C412.676 28.2047 412.713 28.1305 412.763 28.0655C412.813 28.0005 412.876 27.9461 412.947 27.9053L423.762 21.6599C423.833 21.6184 423.911 21.5914 423.992 21.5804C424.074 21.5695 424.156 21.5747 424.236 21.596C424.315 21.6172 424.389 21.6539 424.454 21.7041C424.519 21.7542 424.573 21.8167 424.614 21.888C424.655 21.9589 424.681 22.0372 424.692 22.1184C424.703 22.1996 424.698 22.2822 424.677 22.3613C424.656 22.4405 424.619 22.5148 424.569 22.5799C424.52 22.6449 424.458 22.6996 424.387 22.7407L413.572 28.9861C413.477 29.0411 413.369 29.0701 413.259 29.0704ZM403.43 19.241C403.32 19.2414 403.212 19.2123 403.118 19.1568C403.046 19.116 402.984 19.0616 402.934 18.9966C402.884 18.9316 402.847 18.8574 402.826 18.7781C402.804 18.6989 402.799 18.6162 402.81 18.5349C402.82 18.4535 402.847 18.3751 402.888 18.3041L409.131 7.4866C409.172 7.41532 409.227 7.35284 409.292 7.30275C409.357 7.25266 409.431 7.21596 409.511 7.19475C409.59 7.17354 409.673 7.16826 409.754 7.17919C409.836 7.19013 409.914 7.21707 409.985 7.25847C410.056 7.29952 410.118 7.35414 410.168 7.41923C410.218 7.48431 410.254 7.55857 410.276 7.63776C410.297 7.71696 410.302 7.79953 410.291 7.88075C410.28 7.96198 410.253 8.04026 410.212 8.11113L403.969 18.9286C403.915 19.0235 403.836 19.1024 403.742 19.1573C403.647 19.2121 403.539 19.241 403.43 19.241ZM390.003 15.64C389.921 15.6401 389.84 15.624 389.764 15.5926C389.688 15.5613 389.619 15.5153 389.561 15.4573C389.503 15.3993 389.457 15.3304 389.426 15.2546C389.394 15.1788 389.378 15.0975 389.378 15.0155L389.376 2.52675C389.376 2.44471 389.392 2.36347 389.423 2.28767C389.454 2.21187 389.5 2.143 389.558 2.085C389.617 2.02699 389.685 1.98099 389.761 1.94963C389.837 1.91827 389.918 1.90216 390 1.90222C390.082 1.90218 390.164 1.91831 390.239 1.94968C390.315 1.98105 390.384 2.02705 390.442 2.08505C390.5 2.14305 390.546 2.21192 390.577 2.28771C390.609 2.3635 390.625 2.44473 390.625 2.52675L390.627 15.0155C390.627 15.0975 390.611 15.1788 390.58 15.2546C390.549 15.3303 390.503 15.3992 390.445 15.4572C390.387 15.5152 390.318 15.5612 390.242 15.5926C390.166 15.624 390.085 15.6401 390.003 15.64ZM376.575 19.2385C376.465 19.2385 376.358 19.2097 376.263 19.1548C376.168 19.1 376.089 19.0211 376.035 18.9261L369.789 8.11113C369.748 8.0402 369.721 7.96185 369.71 7.88056C369.699 7.79927 369.705 7.71665 369.726 7.63743C369.747 7.55821 369.784 7.48396 369.834 7.41893C369.884 7.3539 369.946 7.29937 370.017 7.25847C370.088 7.21723 370.166 7.19041 370.248 7.17955C370.329 7.1687 370.412 7.17403 370.491 7.19523C370.57 7.21643 370.644 7.25308 370.709 7.30309C370.774 7.35309 370.829 7.41546 370.87 7.4866L377.115 18.3016C377.156 18.3725 377.183 18.4509 377.194 18.5322C377.205 18.6135 377.199 18.6961 377.178 18.7753C377.157 18.8545 377.12 18.9288 377.071 18.9938C377.021 19.0588 376.958 19.1134 376.887 19.1543C376.792 19.2095 376.685 19.2385 376.575 19.2385ZM424.077 62.1693C423.967 62.1696 423.859 62.1406 423.765 62.0852L412.947 55.8396C412.876 55.7988 412.813 55.7444 412.763 55.6794C412.713 55.6145 412.676 55.5402 412.655 55.461C412.634 55.3817 412.628 55.299 412.639 55.2177C412.65 55.1363 412.677 55.0579 412.718 54.9869C412.889 54.688 413.274 54.5857 413.572 54.7588L424.389 61.0044C424.46 61.0455 424.522 61.1001 424.572 61.1652C424.622 61.2303 424.658 61.3045 424.679 61.3837C424.7 61.4629 424.706 61.5455 424.695 61.6267C424.684 61.7079 424.657 61.7862 424.616 61.8571C424.562 61.952 424.483 62.0308 424.388 62.0856C424.294 62.1404 424.186 62.1693 424.077 62.1693ZM366.743 29.0655C366.633 29.0656 366.525 29.0365 366.431 28.9813L355.616 22.7382C355.545 22.6973 355.482 22.6427 355.432 22.5777C355.382 22.5127 355.346 22.4384 355.325 22.3592C355.303 22.28 355.298 22.1974 355.309 22.1161C355.32 22.0348 355.346 21.9564 355.387 21.8855C355.47 21.7422 355.607 21.6377 355.767 21.5949C355.926 21.5521 356.097 21.5746 356.24 21.6574L367.055 27.9005C367.126 27.9414 367.189 27.9959 367.238 28.061C367.288 28.126 367.325 28.2002 367.346 28.2795C367.367 28.3587 367.373 28.4413 367.362 28.5226C367.351 28.6039 367.324 28.6822 367.283 28.7532C367.229 28.8481 367.15 28.927 367.055 28.9818C366.96 29.0366 366.853 29.0655 366.743 29.0655Z" fill="#E1B12B"/>
<path d="M389.999 54.3649C383.112 54.3649 377.508 48.761 377.508 41.8738C377.508 34.9866 383.112 29.3827 389.999 29.3827C396.887 29.3827 402.491 34.9866 402.491 41.8738C402.491 48.7608 396.887 54.3649 389.999 54.3649ZM389.999 30.6318C383.8 30.6318 378.757 35.6744 378.757 41.8736C378.757 48.0728 383.8 53.1155 389.999 53.1155C396.199 53.1155 401.242 48.0728 401.242 41.8736C401.242 35.6744 396.199 30.6318 389.999 30.6318Z" fill="#E1B12B"/>
<path d="M393.371 51.3274C393.293 51.3274 393.215 51.3238 393.132 51.3164C392.586 51.27 391.856 50.9213 391.51 49.521C391.341 48.845 391.29 48.1694 391.238 47.5155C391.186 46.8299 391.136 46.1822 390.962 45.5539C390.721 44.6853 390.194 44.6024 388.857 44.6024L388.493 44.6011C386.599 44.5803 385.33 43.3277 385.258 41.4088C385.182 39.3474 386.005 38.1872 386.709 37.5774C387.81 36.6247 389.117 36.5088 389.473 36.5699C391.078 36.853 391.849 37.0395 392.185 37.2261C392.651 37.4847 393.074 37.4225 393.347 37.3274C393.487 37.2789 393.618 37.2076 393.735 37.1163C392.971 36.7638 390.887 36.2416 389.814 36.1649C389.729 36.1441 389.558 36.1942 389.421 36.2174C388.916 36.3075 388.223 36.432 387.774 35.9428C387.364 35.4866 387.414 34.8035 387.9 34.1556C388.963 32.7553 390.488 32.1516 391.963 31.5672C392.424 31.3842 392.885 31.2025 393.33 30.9939C393.406 30.8571 393.468 30.7123 393.513 30.562L394.71 30.9158C394.698 30.9524 394.442 31.8147 394.047 32.0356C393.5 32.3016 392.961 32.515 392.422 32.7297C391.047 33.2738 389.748 33.7885 388.897 34.9083C388.863 34.9524 388.833 34.9993 388.807 35.0485C388.936 35.035 389.096 35.0069 389.2 34.9888C389.447 34.9449 389.678 34.901 389.905 34.918C389.953 34.9216 394.845 35.5083 395.113 36.8233C395.203 37.2844 394.947 37.7795 394.43 38.1566C393.805 38.6103 392.683 38.9263 391.58 38.3189C391.468 38.2578 391.022 38.1103 389.311 37.8102C389.123 37.7894 388.153 37.9053 387.409 38.6299C386.766 39.2569 386.463 40.1755 386.507 41.3624C386.553 42.6139 387.282 43.3383 388.507 43.3517L388.857 43.353C390.037 43.353 391.651 43.3542 392.166 45.2206C392.371 45.9647 392.43 46.7038 392.483 47.4186C392.532 48.0492 392.578 48.6447 392.722 49.2203C392.783 49.468 392.956 50.0474 393.24 50.0717C393.91 50.1266 394.369 49.735 395.013 48.9885C395.177 48.7969 395.355 48.6141 395.533 48.431C395.872 48.0845 396.192 47.7577 396.396 47.3858C396.628 46.96 396.723 46.4624 396.821 45.9366C396.938 45.3095 397.06 44.6619 397.423 44.0349L397.55 43.8177C398.25 42.6138 398.599 41.922 398.76 41.5269C397.223 41.4903 396.299 40.8255 395.93 40.1594C395.669 39.6874 395.667 39.1958 395.923 38.8456C396.421 38.1699 397.343 38.415 398.158 38.6335C398.475 38.7177 399.06 38.8763 399.229 38.8189C399.26 38.1175 400.632 37.5478 401.171 37.4783L401.332 38.7177C401.037 38.7555 400.549 39.0227 400.373 39.1691C400.285 39.5411 400.075 39.752 399.905 39.8667C399.346 40.2425 398.577 40.0388 397.836 39.84C397.628 39.785 397.326 39.7045 397.102 39.668C397.17 39.7497 397.27 39.8438 397.416 39.935C397.726 40.1266 398.297 40.3436 399.258 40.2644C399.556 40.2509 399.844 40.3728 400.002 40.623C400.346 41.1706 400.039 42.0281 398.629 44.446L398.504 44.6606C398.248 45.1022 398.15 45.6195 398.048 46.166C397.936 46.7661 397.821 47.386 397.492 47.9858C397.206 48.508 396.811 48.913 396.428 49.3044C396.267 49.4692 396.106 49.6327 395.96 49.8045C395.318 50.5466 394.542 51.3274 393.371 51.3274ZM381.721 50.737L381.5 50.1527L380.93 49.9064C381.082 49.4856 381.676 46.7324 380.643 44.6624C380.108 43.5914 379.201 42.8533 377.95 42.4716L378.315 41.2763C380.903 42.0678 382.381 44.1708 382.48 47.1985C382.481 47.2311 382.507 50.4405 381.721 50.737ZM373.136 42.4981C373.054 42.4982 372.973 42.4821 372.897 42.4507C372.821 42.4194 372.752 42.3734 372.694 42.3154C372.636 42.2573 372.59 42.1885 372.559 42.1127C372.528 42.0369 372.512 41.9556 372.512 41.8736C372.512 32.2308 380.356 24.3861 389.999 24.3861C390.081 24.3861 390.162 24.4022 390.238 24.4336C390.314 24.4649 390.383 24.5109 390.441 24.5689C390.499 24.6269 390.545 24.6958 390.576 24.7716C390.608 24.8474 390.624 24.9286 390.624 25.0106C390.624 25.0927 390.608 25.1739 390.576 25.2497C390.545 25.3255 390.499 25.3943 390.441 25.4523C390.383 25.5103 390.314 25.5563 390.238 25.5877C390.162 25.6191 390.081 25.6352 389.999 25.6352C381.045 25.6352 373.761 32.92 373.761 41.8736C373.761 41.9556 373.745 42.0369 373.713 42.1127C373.682 42.1885 373.636 42.2573 373.578 42.3154C373.52 42.3734 373.451 42.4194 373.375 42.4507C373.299 42.4821 373.218 42.4982 373.136 42.4981Z" fill="#E1B12B"/>
</svg>
