<svg width="20" height="15" viewBox="0 0 20 15" fill="none" xmlns="http://www.w3.org/2000/svg">
<path d="M17.8235 14.6108C17.3765 14.6108 17.0412 14.5005 16.7059 14.1698L14.9177 12.6264H4.41177C2.28824 12.6264 0.5 10.8626 0.5 8.76802V4.35841C0.5 2.26384 2.28824 0.5 4.41177 0.5H15.5882C17.7118 0.5 19.5 2.26384 19.5 4.35841V12.9572C19.5 13.8391 18.7177 14.6108 17.8235 14.6108ZM4.41177 1.6024C2.84706 1.6024 1.61765 2.81505 1.61765 4.35841V8.76802C1.61765 10.3114 2.84706 11.524 4.41177 11.524H15.1412C15.253 11.524 15.3647 11.524 15.4765 11.6343L17.4882 13.3981C17.8235 13.7288 18.3824 13.5084 18.3824 12.9572V4.35841C18.3824 2.81505 17.153 1.6024 15.5882 1.6024H4.41177Z" fill="white"/>
<path d="M5.52942 7.55542C5.30589 7.55542 5.08236 7.44518 4.9706 7.33494C4.85883 7.2247 4.74707 7.00422 4.74707 6.78374C4.74707 6.56326 4.85883 6.34278 4.9706 6.23254C5.30589 5.90182 5.86472 5.90182 6.20001 6.23254C6.31178 6.34278 6.42354 6.56326 6.42354 6.78374C6.42354 7.00422 6.31178 7.2247 6.20001 7.33494C5.97648 7.44518 5.75295 7.55542 5.52942 7.55542Z" fill="white"/>
<path d="M9.99988 7.55542C9.77635 7.55542 9.55282 7.44518 9.44106 7.33494C9.32929 7.2247 9.21753 7.00422 9.21753 6.78374C9.21753 6.56326 9.32929 6.34278 9.44106 6.23254C9.77635 5.90182 10.3352 5.90182 10.6705 6.23254C10.7822 6.34278 10.894 6.56326 10.894 6.78374C10.894 7.00422 10.7822 7.2247 10.6705 7.33494C10.4469 7.44518 10.2234 7.55542 9.99988 7.55542Z" fill="white"/>
<path d="M14.4706 7.55542C14.2471 7.55542 14.0235 7.44518 13.9118 7.33494C13.8 7.2247 13.6882 7.00422 13.6882 6.78374C13.6882 6.56326 13.8 6.34278 13.9118 6.23254C14.2471 5.90182 14.8059 5.90182 15.1412 6.23254C15.2529 6.34278 15.3647 6.56326 15.3647 6.78374C15.3647 7.00422 15.2529 7.2247 15.1412 7.33494C14.9176 7.44518 14.6941 7.55542 14.4706 7.55542Z" fill="white"/>
</svg>
