<svg width="219" height="47" viewBox="0 0 219 47" fill="none" xmlns="http://www.w3.org/2000/svg">
<path d="M24.14 46.744C17.692 46.744 12.1533 44.5533 7.524 40.172C2.89467 35.7493 0.58 30.314 0.58 23.866C0.58 17.3767 2.60533 11.9413 6.656 7.56C10.7067 3.13733 15.894 0.925996 22.218 0.925996C27.178 0.925996 32.2 1.75266 37.284 3.406L36.478 5.886C31.518 4.398 26.7647 3.654 22.218 3.654C16.8033 3.654 12.3807 5.59666 8.95 9.482C5.51933 13.3673 3.804 18.1207 3.804 23.742C3.804 29.3633 5.788 34.158 9.756 38.126C13.7653 42.0527 18.56 44.016 24.14 44.016C29.0173 44.016 33.2333 43.272 36.788 41.784L37.718 43.892C36.1473 44.8013 34.0807 45.504 31.518 46C28.9967 46.496 26.5373 46.744 24.14 46.744ZM65.7047 46.62C59.9594 46.62 55.144 44.6153 51.2587 40.606C47.3734 36.5967 45.4307 31.6987 45.4307 25.912C45.4307 20.084 47.3734 15.1653 51.2587 11.156C55.144 7.14666 59.9594 5.142 65.7047 5.142C71.45 5.142 76.2654 7.14666 80.1507 11.156C84.036 15.1653 85.9787 20.084 85.9787 25.912C85.9787 31.6987 84.036 36.5967 80.1507 40.606C76.2654 44.6153 71.45 46.62 65.7047 46.62ZM65.7047 7.684C60.7447 7.684 56.6114 9.44066 53.3047 12.954C50.0394 16.4673 48.4067 20.7867 48.4067 25.912C48.4067 30.996 50.0394 35.2947 53.3047 38.808C56.6114 42.28 60.7447 44.016 65.7047 44.016C70.706 44.016 74.8394 42.28 78.1047 38.808C81.37 35.2947 83.0027 30.996 83.0027 25.912C83.0027 20.7867 81.37 16.4673 78.1047 12.954C74.8394 9.44066 70.706 7.684 65.7047 7.684ZM106.529 7.498C104.297 7.498 102.478 8.03533 101.073 9.11C99.6675 10.1847 98.9648 11.6933 98.9648 13.636C98.9648 15.868 99.8948 17.8727 101.755 19.65C103.077 20.9313 104.772 22.2953 106.839 23.742C108.947 25.1473 110.393 26.16 111.179 26.78C111.964 27.4 112.915 28.2473 114.031 29.322C116.056 31.3473 117.069 33.6827 117.069 36.328C117.069 39.7587 115.911 42.3627 113.597 44.14C111.323 45.876 108.12 46.744 103.987 46.744C99.8948 46.744 96.4641 45.6693 93.6948 43.52L95.1828 41.35C97.9935 43.2513 100.969 44.202 104.111 44.202C107.252 44.202 109.691 43.5407 111.427 42.218C113.204 40.8953 114.093 39.0353 114.093 36.638C114.093 34.5713 113.204 32.67 111.427 30.934C110.187 29.694 108.513 28.3507 106.405 26.904C104.338 25.4573 102.891 24.424 102.065 23.804C101.238 23.1427 100.267 22.2747 99.1508 21.2C97.0428 19.092 95.9888 16.6533 95.9888 13.884C95.9888 11.1147 96.9601 8.94466 98.9028 7.374C100.887 5.80333 103.615 5.018 107.087 5.018C110.559 5.018 113.679 5.7 116.449 7.064L115.395 9.358C112.832 8.118 109.877 7.498 106.529 7.498ZM147.161 43.892H145.487L133.769 15.434C133.273 14.318 132.777 13.016 132.281 11.528C132.281 11.5693 132.239 11.7967 132.157 12.21C132.115 12.6233 132.053 13.1813 131.971 13.884C131.888 14.5453 131.805 15.1033 131.723 15.558L127.073 46H124.283L130.855 5.514H132.529L145.053 35.212C146.045 37.692 146.541 38.994 146.541 39.118C146.83 38.25 147.388 36.9687 148.215 35.274L162.165 5.514H163.839L169.977 46H167.001L162.599 15.434C162.309 13.4087 162.165 12.0653 162.165 11.404L160.367 15.496L147.161 43.892ZM198.423 46.62C192.678 46.62 187.863 44.6153 183.977 40.606C180.092 36.5967 178.149 31.6987 178.149 25.912C178.149 20.084 180.092 15.1653 183.977 11.156C187.863 7.14666 192.678 5.142 198.423 5.142C204.169 5.142 208.984 7.14666 212.869 11.156C216.755 15.1653 218.697 20.084 218.697 25.912C218.697 31.6987 216.755 36.5967 212.869 40.606C208.984 44.6153 204.169 46.62 198.423 46.62ZM198.423 7.684C193.463 7.684 189.33 9.44066 186.023 12.954C182.758 16.4673 181.125 20.7867 181.125 25.912C181.125 30.996 182.758 35.2947 186.023 38.808C189.33 42.28 193.463 44.016 198.423 44.016C203.425 44.016 207.558 42.28 210.823 38.808C214.089 35.2947 215.721 30.996 215.721 25.912C215.721 20.7867 214.089 16.4673 210.823 12.954C207.558 9.44066 203.425 7.684 198.423 7.684Z" fill="white"/>
</svg>
